<svg width="172" height="186" viewBox="0 0 172 186" fill="none" xmlns="http://www.w3.org/2000/svg">
<g opacity="0.5">
<path d="M93.2661 26.6177H85.5733C42.0897 26.6177 6.83936 61.8681 6.83936 105.352V107.198C6.83936 150.682 42.0897 185.932 85.5733 185.932H93.2661C136.75 185.932 172 150.682 172 107.198V105.352C172 61.8681 136.75 26.6177 93.2661 26.6177Z" fill="#A93349" fill-opacity="0.2"/>
</g>
<path d="M110.085 29.4707C110.047 29.1192 109.881 28.7939 109.618 28.5575C109.431 27.9658 109.119 27.4213 108.702 26.9612C108.286 26.501 107.775 26.136 107.205 25.891C105.483 25.0413 103.577 24.6335 101.659 24.7044C100.225 24.7378 98.0923 24.8444 96.8124 25.771C96.3549 25.8498 95.9078 25.9795 95.4791 26.1577C92.5127 27.3842 90.2596 30.004 88.5797 32.6572C87.7928 33.9279 87.0762 35.2409 86.4332 36.5902C86.3389 36.5992 86.2453 36.6148 86.1532 36.6368C85.9754 36.6021 85.7939 36.5909 85.6132 36.6035C85.2523 36.6149 84.9035 36.7367 84.6138 36.9524C84.3242 37.1682 84.1077 37.4675 83.9934 37.8101C83.91 38.0227 83.8649 38.2484 83.86 38.4767C83.5272 39.7299 83.6697 41.0619 84.26 42.2164C84.4787 43.2079 84.9009 44.1431 85.4999 44.9629C85.8101 45.3869 86.2746 45.6719 86.7931 45.7561C87.1944 47.426 87.4994 49.1176 87.7064 50.8224C87.5931 51.5557 87.4531 52.2956 87.2798 53.0356C86.4998 56.3687 85.6932 59.9284 83.1068 62.3682C82.9495 62.5255 82.8268 62.714 82.7468 62.9215C82.5349 63.1644 82.4181 63.4758 82.4181 63.7981C82.4181 64.1204 82.5349 64.4318 82.7468 64.6747C82.9601 64.9747 83.1734 65.2813 83.4134 65.5813C83.892 67.3026 84.7954 68.8761 86.0405 70.1573C87.2856 71.4385 88.8326 72.3864 90.5395 72.9141C93.1195 73.6435 95.8812 73.3522 98.2523 72.1008C98.4568 72.1567 98.6714 72.1647 98.8795 72.1242C99.0876 72.0838 99.2835 71.9959 99.4522 71.8675C100.382 71.2051 101.22 70.4229 101.945 69.541C103.113 68.7295 104.074 67.6554 104.751 66.4051C105.429 65.1547 105.803 63.7629 105.845 62.3415C105.845 61.155 104.592 60.5217 103.619 60.7417C103.382 59.7452 103.231 58.7306 103.165 57.7086C103.169 57.6664 103.169 57.624 103.165 57.5819C103.388 57.3765 103.553 57.1169 103.645 56.8286C103.855 56.7998 104.059 56.7414 104.252 56.6553C105.445 56.1458 106.481 55.3265 107.252 54.2822C107.492 54.197 107.708 54.054 107.88 53.8656C108.052 53.6773 108.175 53.4494 108.238 53.2022C108.285 53.0423 108.325 52.8823 108.371 52.7223C108.429 52.6587 108.481 52.5895 108.525 52.5156C109.518 50.9291 109.965 48.9492 110.385 47.1427C110.861 45.1243 111.155 43.0674 111.265 40.9965C111.392 38.5881 111.167 36.174 110.598 33.8304C110.501 32.3694 110.329 30.9143 110.085 29.4707Z" fill="#F4F8FB"/>
<path d="M37.0636 77.3135C37.0611 77.1879 37.0332 77.0642 36.9816 76.9496C36.9301 76.8351 36.856 76.7321 36.7637 76.6469C36.1782 74.9125 35.7564 73.1271 35.5038 71.314C35.0032 68.7305 34.3102 66.1881 33.4306 63.7079C33.3516 63.4837 33.2189 63.2823 33.044 63.1213C32.606 62.0642 31.9547 61.1088 31.1308 60.3148C31.0797 60.269 31.0238 60.2288 30.9641 60.1948C30.9282 60.0812 30.8993 59.9654 30.8775 59.8482C30.6841 58.9083 29.2509 59.1816 29.2309 60.0749C29.1832 61.7364 29.6641 63.3703 30.6041 64.7412C30.6181 64.7645 30.6337 64.7867 30.6508 64.8078C30.6705 65.0851 30.675 65.3633 30.6641 65.6411C30.6623 65.794 30.7039 65.9443 30.7841 66.0744C30.6575 66.4677 30.4908 66.8543 30.3308 67.2476C27.1221 63.4574 23.7037 59.8498 20.0916 56.4418C19.025 55.4019 17.5385 56.7084 18.1251 57.9617C18.7435 59.2187 19.5185 60.3923 20.4316 61.4547C20.8116 61.928 21.2115 62.3813 21.6048 62.848H21.5115C21.1184 62.7699 20.7113 62.8049 20.3372 62.9488C19.9632 63.0928 19.6377 63.3398 19.3983 63.6612C18.985 64.3745 19.2717 65.4144 19.745 66.4077C19.376 66.3948 19.0124 66.4987 18.706 66.7046C18.3996 66.9105 18.166 67.2078 18.0384 67.5543C17.8502 68.0054 17.788 68.4991 17.8585 68.9828C17.9289 69.4665 18.1294 69.922 18.4384 70.3007H18.1851C18.0003 70.3533 17.8298 70.4472 17.6867 70.5754C17.5435 70.7036 17.4314 70.8627 17.3588 71.0406C17.2863 71.2185 17.2551 71.4106 17.2678 71.6023C17.2804 71.7941 17.3365 71.9804 17.4318 72.1473C18.7651 73.9671 20.0383 76.087 21.6982 77.6468C23.2126 78.9377 24.956 79.9326 26.8378 80.5799C27.7754 81.2712 28.6662 82.0239 29.5042 82.8331C29.6222 82.9572 29.7656 83.0543 29.9247 83.1177C30.0837 83.1811 30.2546 83.2094 30.4256 83.2005C30.5966 83.1916 30.7637 83.1459 30.9153 83.0663C31.067 82.9868 31.1996 82.8754 31.3041 82.7398L31.4774 82.6598C32.3869 82.148 33.2327 81.5304 33.9972 80.8199C34.4239 80.4133 34.8372 79.78 35.3305 79.28C35.371 79.3535 35.4155 79.4247 35.4638 79.4934C36.3237 80.8266 38.4969 79.5934 37.6236 78.2268C37.4213 77.9323 37.2344 77.6274 37.0636 77.3135Z" fill="#F4F8FB"/>
<path d="M154.261 47.5428C153.986 47.4502 153.687 47.4502 153.412 47.5429C153.136 47.6355 152.899 47.8158 152.735 48.0561C152.948 46.9028 152.902 45.2496 151.442 44.9896C151.052 44.9545 150.66 45.0259 150.308 45.1962C149.956 45.3664 149.656 45.6291 149.442 45.9562C149.315 44.0964 148.849 42.1499 147.235 43.1165C146.996 43.3019 146.796 43.5329 146.646 43.796C146.496 44.0591 146.399 44.3492 146.362 44.6497V44.3764C146.497 42.1714 146.413 39.9583 146.109 37.7702C146.101 37.7063 146.085 37.6436 146.062 37.5835C146.062 37.3302 146.115 37.0836 146.149 36.8303C146.289 35.717 144.516 35.5437 144.229 36.5703C143.722 38.3748 143.403 40.2266 143.276 42.0965V42.1832C143.113 42.3528 143.011 42.5702 142.982 42.8031L142.542 45.9829C142.539 46.0384 142.539 46.094 142.542 46.1496C142.281 46.0222 141.981 45.9984 141.702 46.0829C141.616 45.5363 141.502 44.983 141.369 44.4364C141.082 43.3231 139.529 43.6431 139.449 44.6963C139.136 48.696 139.209 52.789 141.036 56.4621C141.109 56.6887 141.189 56.9154 141.269 57.1287C141.583 58.3696 141.961 59.5934 142.402 60.7951C142.456 61.124 142.502 61.4506 142.542 61.775L142.422 62.4416C142.381 62.6544 142.41 62.8747 142.505 63.0695C142.6 63.2643 142.756 63.4229 142.949 63.5216C143.048 63.6209 143.166 63.7001 143.296 63.7549C143.38 63.8629 143.49 63.9478 143.616 64.0015C145.549 64.9095 147.642 65.4282 149.775 65.5281C150.014 65.5371 150.248 65.451 150.424 65.2886C150.6 65.1263 150.705 64.9008 150.715 64.6615C150.84 64.5433 150.926 64.3898 150.962 64.2215C151.282 62.7349 151.688 61.2684 152.128 59.8152V59.7752C152.812 58.5908 153.432 57.3715 153.988 56.1221C154.037 56.0614 154.078 55.9941 154.108 55.9221C154.141 55.8421 154.175 55.7688 154.201 55.6888L154.281 55.4822L154.381 55.2222L154.595 54.6622C154.623 54.5869 154.643 54.5087 154.655 54.4289C154.988 53.4042 155.198 52.3435 155.281 51.2692C155.361 50.1759 155.641 47.9827 154.261 47.5428ZM149.028 49.416C149.028 49.416 149.028 49.4693 149.028 49.496V49.416Z" fill="#F4F8FB"/>
<path d="M151.475 65.5212C151.475 65.5212 150.588 85.0064 148.142 95.9056C145.695 106.805 141.802 108.425 139.743 108.571C137.876 108.711 133.836 107.811 120.844 93.5124C120.271 105.645 119.924 126.13 120.304 133.049C120.304 133.049 122.031 137.996 121.784 139.236C121.537 140.475 121.044 141.842 119.571 142.089C118.098 142.335 97.0325 145.308 91.4996 144.808C85.9666 144.309 72.661 141.475 70.0745 138.869C67.4881 136.262 70.9411 130.943 71.1811 128.836C71.3811 127.136 71.6677 107.331 71.2478 96.3189C68.008 102.985 62.3218 114.464 61.2485 115.584C58.9621 117.997 55.2023 120.77 50.0961 115.584C39.7369 105.065 30.0043 83.8131 30.0043 83.8131L37.997 77.3136C37.997 77.3136 47.6962 87.3129 53.8491 95.3123L61.9952 74.3539C63.708 70.8107 66.5437 67.9328 70.0612 66.1678C73.7209 64.4213 79.7071 62.0548 83.1735 60.7083V60.7682C83.1735 60.7682 82.9469 71.7207 92.8395 72.7673C103.092 73.8272 105.505 64.6879 106.238 61.6148L106.412 60.8349C109.798 61.5015 115.311 62.5481 116.484 62.7948C120.211 63.5747 123.817 67.1144 126.597 71.7741C129.022 75.8139 131.67 79.7153 134.53 83.4598L134.65 83.6198C135.056 82.3533 135.55 81.0134 136.149 79.6201C139.909 70.9541 142.596 63.2481 142.596 63.2481C142.596 63.2481 147.202 66.0345 151.475 65.5212Z" fill="#C13A54"/>
<path d="M93.0194 145.308C92.4261 145.308 91.9061 145.308 91.4795 145.255C86.2332 144.782 72.6009 142.002 69.8011 139.189C67.7546 137.129 69.0745 133.669 70.0411 131.143C70.366 130.394 70.6161 129.614 70.7877 128.816C70.9677 127.276 71.2344 109.231 70.9077 98.0386C67.0347 105.945 62.5617 114.871 61.5751 115.897C60.3352 117.23 58.3887 118.944 55.8355 118.964H55.7955C53.8357 118.964 51.7959 117.937 49.796 115.904C39.5435 105.425 29.7575 84.1997 29.6576 83.9797C29.6216 83.8944 29.6138 83.7999 29.6354 83.71C29.657 83.62 29.7068 83.5393 29.7775 83.4797L37.7169 76.9869C37.7925 76.9151 37.8927 76.8751 37.9969 76.8751C38.1011 76.8751 38.2013 76.9151 38.2769 76.9869C38.3769 77.0802 47.6095 86.5928 53.709 94.4255L61.5751 74.1604C63.324 70.5055 66.2488 67.5432 69.8811 65.7477C73.5875 63.9812 79.707 61.5614 83.0268 60.2815C83.0899 60.2557 83.1585 60.2464 83.2262 60.2546C83.2938 60.2628 83.3583 60.2881 83.4134 60.3282C83.4692 60.3656 83.5148 60.4162 83.5462 60.4755C83.5776 60.5348 83.5938 60.601 83.5934 60.6681V60.7281C83.5934 61.1681 83.4934 71.3206 92.886 72.2939C99.5522 72.9605 104.045 69.2408 105.832 61.4614L106.005 60.6815C106.029 60.5756 106.093 60.4831 106.184 60.4234C106.275 60.3638 106.385 60.3416 106.492 60.3615C109.898 61.0281 115.391 62.0814 116.564 62.3213C120.191 63.0813 123.897 66.321 126.957 71.5006C129.092 75.1207 131.426 78.6191 133.95 81.9798L134.51 82.7264C134.883 81.6332 135.303 80.5333 135.769 79.46C139.476 70.9007 142.176 63.1879 142.202 63.1146C142.224 63.0565 142.258 63.0038 142.302 62.9603C142.346 62.9167 142.399 62.8833 142.458 62.8623C142.516 62.8414 142.578 62.8334 142.64 62.839C142.702 62.8446 142.762 62.8636 142.816 62.8946C142.856 62.8946 147.349 65.6211 151.428 65.1278C151.489 65.1214 151.55 65.1283 151.607 65.1478C151.665 65.1674 151.717 65.1992 151.762 65.2411C151.806 65.2816 151.84 65.3312 151.863 65.3864C151.886 65.4417 151.897 65.5013 151.895 65.5611C151.895 65.7611 150.982 85.2196 148.562 96.0188C146.242 106.405 142.509 108.824 139.782 109.018C138.409 109.118 134.809 109.378 121.231 94.5655C120.691 106.565 120.364 126.116 120.731 132.989C120.984 133.723 122.457 138.069 122.21 139.342C121.964 140.615 121.431 142.229 119.651 142.522C118.371 142.715 100.192 145.308 93.0194 145.308ZM71.2677 95.9254H71.3544C71.4456 95.9437 71.5278 95.9928 71.5872 96.0643C71.6467 96.1359 71.6798 96.2257 71.681 96.3187C72.1143 107.651 71.8143 127.223 71.6143 128.896C71.4425 129.767 71.1765 130.616 70.8211 131.429C69.8878 133.869 68.7279 136.909 70.3944 138.582C72.8209 141.029 85.9266 143.915 91.5528 144.408C97.059 144.902 118.131 141.922 119.517 141.689C120.511 141.522 121.071 140.769 121.391 139.169C121.557 138.349 120.584 135.069 119.931 133.169C119.924 133.132 119.924 133.093 119.931 133.056C119.544 126.016 119.931 105.411 120.471 93.4789C120.475 93.3968 120.503 93.3176 120.551 93.2513C120.6 93.1849 120.667 93.1343 120.744 93.1056C120.822 93.0784 120.907 93.0746 120.987 93.0947C121.068 93.1149 121.141 93.158 121.197 93.219C135.063 108.484 138.596 108.224 139.749 108.144C143.202 107.898 146.049 103.478 147.748 95.7988C149.928 86.0129 150.875 69.0342 151.028 65.9677C147.549 66.1944 144.035 64.4878 142.816 63.8212C142.149 65.6344 139.722 72.3806 136.529 79.7533C135.967 81.047 135.47 82.3686 135.043 83.713C135.018 83.7853 134.975 83.8499 134.918 83.9003C134.861 83.9506 134.791 83.9849 134.716 83.9997C134.641 84.0131 134.564 84.0053 134.493 83.977C134.423 83.9487 134.361 83.9011 134.316 83.8397L134.19 83.6864C133.963 83.3597 133.656 82.9531 133.276 82.4398C130.736 79.0879 128.386 75.596 126.237 71.9806C123.324 67.0943 119.737 63.8945 116.398 63.1946C115.271 62.9613 110.151 61.968 106.732 61.3147L106.645 61.7014C104.252 72.1273 97.7923 73.7005 92.7994 73.1738C90.8392 73.0363 88.9597 72.3388 87.3845 71.1641C85.8092 69.9895 84.6044 68.3872 83.9134 66.5477C83.2413 64.8798 82.8537 63.1109 82.7668 61.3147C79.3737 62.648 73.7275 64.8811 70.2411 66.5477C66.8043 68.2767 64.0311 71.0874 62.3484 74.5471L54.2223 95.4588C54.194 95.5279 54.1485 95.5886 54.0902 95.6352C54.0319 95.6819 53.9626 95.7129 53.889 95.7254C53.8152 95.7354 53.7401 95.7259 53.6711 95.6979C53.6021 95.6698 53.5416 95.6241 53.4957 95.5655C47.9961 88.406 39.5501 79.5667 37.9436 77.8868L30.5575 83.933C31.7707 86.5195 40.8967 105.611 50.4293 115.264C52.2625 117.13 54.069 118.077 55.7622 118.077H55.8089C58.042 118.077 59.8086 116.464 60.9485 115.271C61.6884 114.491 65.3015 107.505 70.8544 96.1054C70.8968 96.0355 70.9581 95.979 71.0312 95.9424C71.1043 95.9058 71.1863 95.8907 71.2677 95.8988V95.9254Z" fill="#CB5068"/>
<g opacity="0.6">
<mask id="mask0_1408_2774" style="mask-type:luminance" maskUnits="userSpaceOnUse" x="68" y="66" width="54" height="79">
<path d="M121.917 138.702C121.671 139.916 121.137 141.562 119.364 141.862C118.077 142.075 99.9389 144.622 92.7794 144.622C92.1861 144.622 91.6662 144.622 91.2395 144.569C86.0066 144.102 72.401 141.342 69.6079 138.569C67.5613 136.529 68.8812 133.096 69.8478 130.57C70.173 129.828 70.4232 129.055 70.5944 128.263C70.7744 126.73 71.0411 108.838 70.7078 97.7322V90.3994C69.3745 71.7342 84.6067 67.1412 84.8467 67.0678C85.5773 68.5423 86.6847 69.7974 88.0568 70.7059C89.4289 71.6143 91.0167 72.1439 92.6594 72.2408C97.7257 72.7607 101.525 70.7409 103.839 66.3479C106.118 66.9745 122.37 72.2274 121.057 94.3857L120.957 94.2791C120.417 106.185 120.091 125.61 120.457 132.396C120.697 133.123 122.17 137.436 121.917 138.702Z" fill="white"/>
</mask>
<g mask="url(#mask0_1408_2774)">
<g opacity="0.7">
<path d="M128.177 142.642L61.5951 142.062C61.5208 142.062 61.4496 142.032 61.3971 141.98C61.3446 141.927 61.3151 141.856 61.3151 141.782C61.3151 141.708 61.3446 141.636 61.3971 141.584C61.4496 141.531 61.5208 141.502 61.5951 141.502L128.17 142.082C128.207 142.082 128.244 142.089 128.279 142.104C128.313 142.118 128.344 142.14 128.37 142.166C128.396 142.193 128.417 142.225 128.431 142.259C128.444 142.294 128.451 142.331 128.45 142.369C128.45 142.441 128.421 142.511 128.37 142.562C128.319 142.613 128.249 142.642 128.177 142.642Z" fill="#F6F7FB"/>
<path d="M128.203 139.442L61.6284 138.862C61.5541 138.859 61.4838 138.827 61.4319 138.774C61.3799 138.721 61.3501 138.65 61.3484 138.576C61.3484 138.539 61.3557 138.503 61.3699 138.469C61.384 138.436 61.4048 138.405 61.4308 138.38C61.4569 138.355 61.4879 138.335 61.5218 138.321C61.5557 138.308 61.592 138.301 61.6284 138.302L128.21 138.882C128.246 138.882 128.283 138.89 128.316 138.904C128.35 138.918 128.38 138.939 128.406 138.965C128.431 138.991 128.451 139.022 128.464 139.056C128.478 139.09 128.484 139.126 128.483 139.162C128.483 139.199 128.476 139.235 128.462 139.269C128.448 139.303 128.427 139.334 128.401 139.36C128.375 139.386 128.344 139.407 128.31 139.421C128.277 139.435 128.24 139.442 128.203 139.442Z" fill="#F6F7FB"/>
<path d="M128.23 136.249L61.6552 135.663C61.5809 135.663 61.5097 135.633 61.4572 135.581C61.4047 135.528 61.3752 135.457 61.3752 135.383C61.3785 135.31 61.4093 135.242 61.4613 135.191C61.5133 135.14 61.5826 135.111 61.6552 135.109L128.237 135.689C128.273 135.689 128.309 135.697 128.343 135.711C128.376 135.725 128.407 135.746 128.432 135.772C128.458 135.798 128.478 135.829 128.491 135.863C128.505 135.897 128.511 135.933 128.51 135.969C128.51 136.044 128.481 136.115 128.428 136.167C128.376 136.22 128.304 136.249 128.23 136.249Z" fill="#F6F7FB"/>
<path d="M128.263 133.05L61.6884 132.47C61.652 132.47 61.6159 132.462 61.5823 132.448C61.5487 132.434 61.5182 132.413 61.4928 132.387C61.4673 132.361 61.4473 132.33 61.434 132.296C61.4206 132.262 61.4142 132.226 61.4151 132.19C61.4142 132.153 61.4206 132.117 61.434 132.083C61.4473 132.049 61.4673 132.018 61.4928 131.992C61.5182 131.966 61.5487 131.945 61.5823 131.931C61.6159 131.917 61.652 131.91 61.6884 131.91L128.263 132.496C128.329 132.507 128.389 132.54 128.433 132.591C128.476 132.642 128.5 132.706 128.5 132.773C128.5 132.84 128.476 132.904 128.433 132.955C128.389 133.006 128.329 133.039 128.263 133.05Z" fill="#F6F7FB"/>
<path d="M128.29 129.857L61.7084 129.31C61.672 129.31 61.6359 129.303 61.6023 129.289C61.5687 129.274 61.5383 129.254 61.5128 129.228C61.4873 129.201 61.4673 129.171 61.454 129.137C61.4407 129.103 61.4343 129.066 61.4351 129.03C61.4351 128.956 61.4646 128.885 61.5171 128.832C61.5696 128.779 61.6409 128.75 61.7151 128.75L128.29 129.337C128.33 129.33 128.371 129.333 128.41 129.344C128.448 129.355 128.485 129.374 128.515 129.401C128.546 129.427 128.571 129.46 128.587 129.496C128.604 129.533 128.613 129.573 128.613 129.613C128.613 129.654 128.604 129.694 128.587 129.73C128.571 129.767 128.546 129.8 128.515 129.826C128.485 129.852 128.448 129.872 128.41 129.883C128.371 129.894 128.33 129.896 128.29 129.89V129.857Z" fill="#F6F7FB"/>
<path d="M128.317 126.643L61.7351 126.063C61.6987 126.063 61.6626 126.056 61.629 126.042C61.5954 126.028 61.5649 126.007 61.5395 125.981C61.514 125.955 61.494 125.924 61.4807 125.89C61.4673 125.856 61.4609 125.82 61.4618 125.783C61.4635 125.71 61.4936 125.639 61.5457 125.587C61.5978 125.535 61.6681 125.505 61.7418 125.503L128.317 126.083C128.392 126.085 128.463 126.116 128.515 126.17C128.567 126.223 128.597 126.295 128.597 126.37C128.597 126.406 128.589 126.443 128.575 126.476C128.561 126.51 128.54 126.54 128.514 126.566C128.488 126.591 128.457 126.611 128.423 126.624C128.389 126.638 128.353 126.644 128.317 126.643Z" fill="#F6F7FB"/>
<path d="M128.343 123.47L61.7618 122.89C61.6881 122.887 61.6186 122.855 61.5677 122.802C61.5168 122.748 61.4884 122.677 61.4885 122.603C61.4885 122.567 61.4957 122.531 61.5099 122.497C61.524 122.464 61.5448 122.433 61.5709 122.408C61.597 122.382 61.6279 122.362 61.6618 122.349C61.6957 122.336 61.732 122.329 61.7684 122.33L128.35 122.91C128.386 122.91 128.423 122.917 128.456 122.932C128.49 122.946 128.52 122.966 128.546 122.993C128.571 123.019 128.591 123.05 128.604 123.083C128.618 123.117 128.624 123.154 128.623 123.19C128.623 123.264 128.594 123.336 128.541 123.388C128.489 123.441 128.418 123.47 128.343 123.47Z" fill="#F6F7FB"/>
<path d="M128.37 120.277L61.7951 119.691C61.7583 119.691 61.7219 119.683 61.688 119.669C61.654 119.655 61.6231 119.635 61.5971 119.609C61.5711 119.583 61.5505 119.552 61.5365 119.518C61.5224 119.484 61.5151 119.447 61.5151 119.411C61.5151 119.374 61.5224 119.338 61.5366 119.304C61.5507 119.271 61.5714 119.24 61.5975 119.215C61.6236 119.189 61.6545 119.169 61.6885 119.156C61.7224 119.143 61.7587 119.136 61.7951 119.137L128.377 119.717C128.413 119.717 128.449 119.725 128.483 119.739C128.516 119.753 128.547 119.774 128.572 119.8C128.598 119.826 128.618 119.857 128.631 119.891C128.644 119.925 128.651 119.961 128.65 119.997C128.65 120.071 128.621 120.143 128.568 120.195C128.515 120.248 128.444 120.277 128.37 120.277Z" fill="#F6F7FB"/>
<path d="M128.403 117.077L61.8285 116.497C61.7542 116.497 61.683 116.468 61.6305 116.415C61.578 116.363 61.5485 116.292 61.5485 116.217C61.5494 116.181 61.5575 116.144 61.5724 116.111C61.5872 116.077 61.6086 116.047 61.6352 116.021C61.6618 115.996 61.6932 115.976 61.7275 115.963C61.7618 115.95 61.7984 115.943 61.8352 115.944L128.41 116.524C128.476 116.534 128.536 116.568 128.58 116.619C128.623 116.669 128.647 116.734 128.647 116.801C128.647 116.868 128.623 116.932 128.58 116.983C128.536 117.034 128.476 117.067 128.41 117.077H128.403Z" fill="#F6F7FB"/>
<path d="M128.43 113.884L61.8484 113.311C61.8119 113.311 61.7759 113.304 61.7423 113.29C61.7086 113.275 61.6782 113.255 61.6527 113.229C61.6273 113.202 61.6073 113.172 61.594 113.138C61.5806 113.104 61.5742 113.067 61.5751 113.031C61.5742 112.995 61.5806 112.958 61.594 112.924C61.6073 112.89 61.6273 112.859 61.6527 112.833C61.6782 112.807 61.7086 112.787 61.7423 112.772C61.7759 112.758 61.8119 112.751 61.8484 112.751L128.423 113.338C128.463 113.331 128.504 113.334 128.543 113.345C128.582 113.356 128.618 113.375 128.648 113.402C128.679 113.428 128.704 113.46 128.721 113.497C128.738 113.534 128.746 113.574 128.746 113.614C128.746 113.655 128.738 113.695 128.721 113.731C128.704 113.768 128.679 113.801 128.648 113.827C128.618 113.853 128.582 113.873 128.543 113.884C128.504 113.895 128.463 113.897 128.423 113.891L128.43 113.884Z" fill="#F6F7FB"/>
<path d="M128.457 110.691L61.8751 110.111C61.8386 110.111 61.8025 110.104 61.7689 110.09C61.7353 110.076 61.7049 110.055 61.6794 110.029C61.6539 110.003 61.634 109.972 61.6206 109.938C61.6073 109.904 61.6009 109.868 61.6018 109.831C61.6018 109.757 61.6313 109.686 61.6838 109.633C61.7363 109.581 61.8075 109.551 61.8817 109.551L128.457 110.131C128.531 110.133 128.603 110.164 128.655 110.217C128.707 110.271 128.737 110.343 128.737 110.418C128.737 110.454 128.729 110.49 128.715 110.524C128.701 110.558 128.68 110.588 128.654 110.614C128.628 110.639 128.597 110.659 128.563 110.672C128.529 110.686 128.493 110.692 128.457 110.691Z" fill="#F6F7FB"/>
<path d="M128.483 107.498L61.9018 106.918C61.8281 106.915 61.7586 106.883 61.7077 106.83C61.6568 106.776 61.6284 106.705 61.6285 106.631C61.6302 106.558 61.6605 106.489 61.7128 106.438C61.7651 106.387 61.8353 106.358 61.9085 106.358L128.49 106.938C128.526 106.938 128.563 106.945 128.596 106.96C128.63 106.974 128.66 106.994 128.686 107.02C128.711 107.047 128.731 107.078 128.744 107.111C128.758 107.145 128.764 107.182 128.763 107.218C128.763 107.255 128.756 107.291 128.742 107.325C128.728 107.359 128.707 107.39 128.681 107.416C128.655 107.442 128.624 107.463 128.591 107.477C128.557 107.491 128.52 107.498 128.483 107.498Z" fill="#F6F7FB"/>
<path d="M128.51 104.305L61.9351 103.718C61.8608 103.718 61.7896 103.689 61.7371 103.636C61.6846 103.584 61.6551 103.513 61.6551 103.438C61.6551 103.402 61.6624 103.366 61.6765 103.332C61.6907 103.299 61.7114 103.268 61.7375 103.243C61.7636 103.217 61.7945 103.197 61.8284 103.184C61.8624 103.171 61.8986 103.164 61.9351 103.165L128.517 103.745C128.553 103.745 128.589 103.752 128.623 103.767C128.656 103.781 128.687 103.801 128.712 103.827C128.738 103.854 128.758 103.884 128.771 103.918C128.784 103.952 128.791 103.989 128.79 104.025C128.79 104.099 128.76 104.171 128.708 104.223C128.655 104.276 128.584 104.305 128.51 104.305Z" fill="#F6F7FB"/>
<path d="M128.543 101.105L61.9951 100.525C61.9552 100.531 61.9144 100.529 61.8755 100.518C61.8366 100.507 61.8006 100.487 61.7699 100.461C61.7392 100.435 61.7146 100.402 61.6977 100.366C61.6808 100.329 61.6721 100.289 61.6721 100.248C61.6721 100.208 61.6808 100.168 61.6977 100.131C61.7146 100.095 61.7392 100.062 61.7699 100.036C61.8006 100.01 61.8366 99.9902 61.8755 99.9792C61.9144 99.9681 61.9552 99.9656 61.9951 99.9718L128.57 100.552C128.636 100.562 128.696 100.596 128.74 100.646C128.783 100.697 128.807 100.762 128.807 100.828C128.807 100.895 128.783 100.96 128.74 101.011C128.696 101.061 128.636 101.095 128.57 101.105H128.543Z" fill="#F6F7FB"/>
<path d="M128.57 97.9121L61.9951 97.3122C61.9586 97.3122 61.9225 97.3049 61.8889 97.2907C61.8553 97.2766 61.8249 97.2559 61.7994 97.2298C61.7739 97.2037 61.754 97.1727 61.7406 97.1388C61.7273 97.1049 61.7209 97.0686 61.7218 97.0322C61.7209 96.9957 61.7273 96.9595 61.7406 96.9255C61.754 96.8916 61.7739 96.8607 61.7994 96.8346C61.8249 96.8085 61.8553 96.7878 61.8889 96.7736C61.9225 96.7595 61.9586 96.7522 61.9951 96.7522L128.57 97.3388C128.61 97.3326 128.651 97.3351 128.69 97.3461C128.728 97.3572 128.764 97.3765 128.795 97.4028C128.826 97.4291 128.85 97.4617 128.867 97.4984C128.884 97.5351 128.893 97.5751 128.893 97.6155C128.893 97.6559 128.884 97.6958 128.867 97.7325C128.85 97.7692 128.826 97.8018 128.795 97.8281C128.764 97.8544 128.728 97.8737 128.69 97.8848C128.651 97.8958 128.61 97.8983 128.57 97.8921V97.9121Z" fill="#F6F7FB"/>
<path d="M128.597 94.719L61.9951 94.1391C61.9586 94.1391 61.9225 94.1318 61.8889 94.1176C61.8553 94.1035 61.8249 94.0828 61.7994 94.0567C61.7739 94.0306 61.754 93.9997 61.7406 93.9657C61.7273 93.9318 61.7209 93.8955 61.7218 93.8591C61.7218 93.7848 61.7513 93.7136 61.8038 93.6611C61.8563 93.6086 61.9275 93.5791 62.0017 93.5791L128.577 94.1591C128.651 94.1624 128.721 94.1939 128.773 94.2471C128.825 94.3003 128.855 94.3713 128.857 94.4457C128.857 94.5159 128.83 94.5835 128.781 94.6344C128.733 94.6853 128.667 94.7156 128.597 94.719Z" fill="#F6F7FB"/>
<path d="M128.657 91.5257L62.0752 90.9458C62.0384 90.9449 62.0021 90.9368 61.9685 90.9219C61.9349 90.9071 61.9045 90.8857 61.8791 90.8591C61.8537 90.8325 61.8338 90.8011 61.8206 90.7668C61.8073 90.7325 61.801 90.6959 61.8018 90.6591C61.8018 90.6227 61.8091 90.5866 61.8233 90.553C61.8374 90.5194 61.8581 90.4889 61.8842 90.4635C61.9103 90.438 61.9412 90.418 61.9752 90.4047C62.0091 90.3913 62.0454 90.3849 62.0818 90.3858L128.663 90.9658C128.7 90.9658 128.736 90.9731 128.77 90.9872C128.803 91.0014 128.834 91.0221 128.859 91.0482C128.885 91.0743 128.904 91.1052 128.918 91.1391C128.931 91.1731 128.938 91.2093 128.937 91.2458C128.937 91.32 128.907 91.3912 128.855 91.4437C128.802 91.4962 128.731 91.5257 128.657 91.5257Z" fill="#F6F7FB"/>
<path d="M128.657 88.3329L62.0818 87.7463C62.0418 87.7525 62.001 87.75 61.9622 87.739C61.9233 87.7279 61.8873 87.7086 61.8566 87.6823C61.8259 87.6561 61.8013 87.6234 61.7844 87.5867C61.7675 87.55 61.7587 87.5101 61.7587 87.4697C61.7587 87.4293 61.7675 87.3893 61.7844 87.3526C61.8013 87.3159 61.8259 87.2833 61.8566 87.257C61.8873 87.2307 61.9233 87.2114 61.9622 87.2004C62.001 87.1893 62.0418 87.1868 62.0818 87.193L128.663 87.773C128.7 87.773 128.736 87.7803 128.77 87.7944C128.803 87.8086 128.834 87.8293 128.859 87.8554C128.884 87.8815 128.904 87.9124 128.918 87.9463C128.931 87.9803 128.938 88.0165 128.937 88.053C128.937 88.1272 128.907 88.1984 128.855 88.2509C128.802 88.3034 128.731 88.3329 128.657 88.3329Z" fill="#F6F7FB"/>
<path d="M128.657 85.1332L62.0818 84.5532C62.0418 84.5594 62.001 84.5569 61.9622 84.5459C61.9233 84.5348 61.8873 84.5155 61.8566 84.4892C61.8259 84.4629 61.8013 84.4303 61.7844 84.3936C61.7675 84.3569 61.7587 84.317 61.7587 84.2766C61.7587 84.2362 61.7675 84.1962 61.7844 84.1595C61.8013 84.1228 61.8259 84.0902 61.8566 84.0639C61.8873 84.0376 61.9233 84.0183 61.9622 84.0072C62.001 83.9962 62.0418 83.9937 62.0818 83.9999L128.657 84.5799C128.723 84.5901 128.783 84.6237 128.826 84.6744C128.87 84.7251 128.894 84.7897 128.894 84.8565C128.894 84.9233 128.87 84.9879 128.826 85.0386C128.783 85.0894 128.723 85.1229 128.657 85.1332Z" fill="#F6F7FB"/>
<path d="M128.71 81.9402L62.1351 81.3602C62.0986 81.3603 62.0625 81.353 62.0289 81.3388C61.9953 81.3247 61.9649 81.3039 61.9394 81.2779C61.914 81.2518 61.894 81.2208 61.8806 81.1869C61.8673 81.153 61.8609 81.1167 61.8618 81.0803C61.8609 81.0438 61.8673 81.0076 61.8806 80.9736C61.894 80.9397 61.914 80.9088 61.9394 80.8827C61.9649 80.8566 61.9953 80.8359 62.0289 80.8217C62.0625 80.8076 62.0986 80.8003 62.1351 80.8003L128.71 81.3869C128.776 81.3972 128.836 81.4307 128.88 81.4814C128.923 81.5322 128.947 81.5968 128.947 81.6636C128.947 81.7303 128.923 81.7949 128.88 81.8457C128.836 81.8964 128.776 81.9299 128.71 81.9402Z" fill="#F6F7FB"/>
<path d="M128.737 78.7471L62.1551 78.1671C62.1186 78.1671 62.0826 78.1599 62.049 78.1457C62.0154 78.1316 61.9849 78.1108 61.9595 78.0847C61.934 78.0587 61.914 78.0277 61.9007 77.9938C61.8873 77.9599 61.8809 77.9236 61.8818 77.8872C61.8818 77.8129 61.9113 77.7417 61.9638 77.6892C62.0163 77.6367 62.0875 77.6072 62.1618 77.6072L128.737 78.1871C128.811 78.1905 128.881 78.222 128.933 78.2752C128.985 78.3284 129.015 78.3994 129.017 78.4738C129.015 78.5469 128.985 78.6164 128.932 78.6675C128.88 78.7185 128.81 78.7471 128.737 78.7471Z" fill="#F6F7FB"/>
<path d="M128.763 75.5538L62.1817 74.9739C62.1449 74.973 62.1087 74.9649 62.0751 74.95C62.0414 74.9351 62.0111 74.9138 61.9857 74.8872C61.9603 74.8605 61.9404 74.8292 61.9271 74.7949C61.9139 74.7606 61.9075 74.724 61.9084 74.6872C61.9084 74.6507 61.9157 74.6147 61.9298 74.5811C61.944 74.5475 61.9647 74.517 61.9908 74.4916C62.0169 74.4661 62.0478 74.4461 62.0817 74.4328C62.1157 74.4194 62.1519 74.413 62.1884 74.4139L128.763 74.9939C128.838 74.9939 128.909 75.0234 128.961 75.0759C129.014 75.1284 129.043 75.1996 129.043 75.2738C129.043 75.3481 129.014 75.4193 128.961 75.4718C128.909 75.5243 128.838 75.5538 128.763 75.5538Z" fill="#F6F7FB"/>
<path d="M128.79 72.361L62.2151 71.7744C62.1752 71.7806 62.1344 71.7781 62.0955 71.7671C62.0566 71.756 62.0206 71.7367 61.9899 71.7104C61.9592 71.6841 61.9346 71.6515 61.9177 71.6148C61.9008 71.5781 61.892 71.5382 61.892 71.4978C61.892 71.4573 61.9008 71.4174 61.9177 71.3807C61.9346 71.344 61.9592 71.3114 61.9899 71.2851C62.0206 71.2588 62.0566 71.2395 62.0955 71.2284C62.1344 71.2174 62.1752 71.2149 62.2151 71.2211L128.797 71.8011C128.833 71.8011 128.869 71.8083 128.903 71.8225C128.936 71.8366 128.967 71.8574 128.992 71.8835C129.018 71.9095 129.038 71.9405 129.051 71.9744C129.064 72.0083 129.071 72.0446 129.07 72.081C129.07 72.1553 129.04 72.2265 128.988 72.279C128.935 72.3315 128.864 72.361 128.79 72.361Z" fill="#F6F7FB"/>
<path d="M128.817 69.1676L62.2418 68.581C62.205 68.581 62.1686 68.5737 62.1346 68.5596C62.1007 68.5456 62.0698 68.525 62.0438 68.499C62.0178 68.473 61.9972 68.4421 61.9831 68.4081C61.969 68.3742 61.9618 68.3378 61.9618 68.301C61.9618 68.2645 61.9691 68.2284 61.9832 68.1948C61.9974 68.1612 62.0181 68.1308 62.0442 68.1053C62.0703 68.0799 62.1012 68.0599 62.1351 68.0465C62.1691 68.0332 62.2053 68.0268 62.2418 68.0277L128.823 68.6076C128.86 68.6076 128.896 68.6149 128.929 68.629C128.963 68.6432 128.994 68.6639 129.019 68.69C129.044 68.7161 129.064 68.747 129.078 68.781C129.091 68.8149 129.098 68.8512 129.097 68.8876C129.097 68.9619 129.067 69.0331 129.015 69.0856C128.962 69.1381 128.891 69.1676 128.817 69.1676Z" fill="#F6F7FB"/>
</g>
</g>
</g>
<path d="M100.659 57.4885C94.3059 57.4885 90.1796 51.1623 90.1262 51.0823C90.0767 51.0045 90.0602 50.9102 90.0802 50.8202C90.1002 50.7302 90.1551 50.6518 90.2329 50.6023C90.3107 50.5528 90.405 50.5362 90.495 50.5562C90.585 50.5762 90.6634 50.6312 90.7129 50.709C91.8195 52.32 93.2057 53.7198 94.8059 54.842C98.1923 57.1751 101.712 57.4351 105.272 55.6086C113.438 51.4089 109.871 28.8573 109.838 28.6307C109.83 28.5856 109.832 28.5394 109.842 28.4948C109.852 28.4503 109.871 28.4082 109.898 28.371C109.925 28.3338 109.959 28.3023 109.997 28.2782C110.036 28.2541 110.08 28.238 110.125 28.2307C110.216 28.2171 110.308 28.2394 110.383 28.2929C110.457 28.3465 110.508 28.4269 110.525 28.5173C111.112 32.5339 111.38 36.5908 111.325 40.6497C111.151 49.1358 109.218 54.3887 105.572 56.2619C104.056 57.0592 102.371 57.4799 100.659 57.4885Z" fill="black"/>
<path d="M84.1735 61.5013C84.1071 61.5042 84.0416 61.4855 83.9868 61.448C83.9475 61.4242 83.9134 61.3927 83.8866 61.3554C83.8598 61.3181 83.8408 61.2757 83.8308 61.2308C83.8209 61.186 83.8201 61.1396 83.8286 61.0944C83.8371 61.0492 83.8546 61.0062 83.8802 60.968C86.4684 56.2706 87.4603 50.8593 86.7066 45.5492C86.6871 45.5004 86.6789 45.4478 86.6827 45.3953C86.6865 45.3429 86.7022 45.292 86.7285 45.2465C86.7549 45.201 86.7913 45.1621 86.8349 45.1328C86.8785 45.1034 86.9283 45.0844 86.9803 45.0771C87.0324 45.0698 87.0855 45.0744 87.1355 45.0907C87.1855 45.1069 87.2312 45.1343 87.269 45.1708C87.3069 45.2073 87.3359 45.252 87.354 45.3014C87.372 45.3507 87.3786 45.4036 87.3732 45.4559C88.1496 50.9175 87.1295 56.4834 84.4668 61.3147C84.4392 61.3693 84.3974 61.4155 84.3458 61.4483C84.2942 61.4812 84.2346 61.4995 84.1735 61.5013Z" fill="black"/>
<path d="M80.4537 29.564C81.1203 34.3837 84.0934 40.6832 84.0934 40.6832C83.3335 35.8569 89.053 35.9035 89.9463 41.9564C91.6529 40.2832 91.2262 35.0903 91.3196 34.9703C91.3196 34.9703 96.2458 35.9035 95.0593 27.6708C97.3391 30.6573 103.639 30.3973 106.272 28.8374C108.818 29.804 114.124 30.0773 116.471 24.6044C118.584 17.2116 112.311 15.1385 109.085 16.905C106.798 18.1516 104.192 16.5317 102.325 15.5718C98.9141 14.2238 95.1741 13.9426 91.5995 14.7652C83.9334 16.565 85.2267 22.2046 85.2267 22.2046C85.2267 22.2046 79.7871 24.7377 80.4537 29.564Z" fill="black"/>
<path d="M0.5 72.9999V75.4999L54.5 75.5V72.5H52.5V69.5H50.5V39L52.5 38.5V35.5L28 19.5H27.5L2.5 35.5V38.5L4 38.7947V69.4999H2.5V72.4999H0.5V72.9999Z" fill="#F4F8FB"/>
<path d="M89.9463 42.303H89.833C89.7731 42.2807 89.72 42.2432 89.6791 42.1941C89.6382 42.1449 89.6108 42.086 89.5997 42.023C89.2864 39.8765 88.2664 38.2766 86.9332 37.7433C86.6401 37.6106 86.3169 37.5585 85.997 37.5925C85.6771 37.6265 85.372 37.7453 85.1134 37.9367C84.4934 38.4366 84.2468 39.4232 84.4467 40.6431C84.4601 40.7257 84.4432 40.8103 84.3991 40.8813C84.355 40.9524 84.2867 41.0051 84.2068 41.0298C84.127 41.055 84.0407 41.0499 83.9644 41.0154C83.8882 40.981 83.8273 40.9196 83.7935 40.8431C83.6668 40.5898 80.7737 34.4436 80.1204 29.624C79.5071 25.1976 83.7935 22.6178 84.86 22.0512C84.7134 20.8513 84.6001 16.0917 91.5262 14.4651C95.1761 13.6199 98.997 13.9083 102.479 15.2917L103.092 15.605C104.845 16.5116 107.032 17.6449 108.925 16.6116C109.924 16.107 111.046 15.8967 112.16 16.0053C113.274 16.1139 114.335 16.5369 115.218 17.2249C116.358 18.1315 118.071 20.3114 116.811 24.711C116.811 24.711 116.811 24.711 116.811 24.751C114.391 30.3906 108.985 30.1706 106.318 29.2307C103.652 30.6906 98.2457 30.8772 95.5459 28.6574C95.7992 31.3838 95.3459 33.3237 94.2127 34.4236C93.8764 34.7402 93.4803 34.9865 93.0476 35.1479C92.6149 35.3093 92.1543 35.3826 91.6929 35.3635V35.5169C91.6929 36.9501 91.6929 40.7564 90.2263 42.183C90.1929 42.2242 90.1499 42.2567 90.1011 42.2776C90.0524 42.2985 89.9992 42.3072 89.9463 42.303ZM86.1333 36.8767C86.4942 36.8789 86.8515 36.949 87.1865 37.0834C88.5931 37.6367 89.6663 39.0832 90.1396 41.0831C90.9862 39.5032 90.9662 36.5434 90.9529 35.4835C90.9529 34.9102 90.9529 34.8502 91.0396 34.7302C91.0795 34.6804 91.1322 34.6422 91.1921 34.6199C91.2519 34.5976 91.3167 34.592 91.3795 34.6036C91.7964 34.6613 92.2209 34.6255 92.6222 34.4986C93.0234 34.3718 93.3914 34.1572 93.6994 33.8703C94.7926 32.8171 95.1459 30.6772 94.7126 27.6908C94.7042 27.6148 94.7207 27.5381 94.7597 27.4723C94.7986 27.4065 94.8578 27.355 94.9284 27.3257C94.999 27.2964 95.0773 27.2908 95.1513 27.3098C95.2254 27.3287 95.2914 27.3712 95.3392 27.4308C97.4257 30.1706 103.519 30.0373 106.092 28.5107C106.138 28.4878 106.19 28.4758 106.242 28.4758C106.294 28.4758 106.345 28.4878 106.392 28.5107C108.778 29.4107 113.878 29.7306 116.138 24.511C116.984 21.5513 116.498 19.1781 114.804 17.7782C114.028 17.1752 113.097 16.8044 112.119 16.7088C111.141 16.6132 110.156 16.7968 109.278 17.2383C107.058 18.4448 104.612 17.1716 102.792 16.2383L102.199 15.9317C98.8569 14.6318 95.2024 14.3625 91.7062 15.1584C84.4601 16.8583 85.54 21.9646 85.5933 22.1779C85.6101 22.2556 85.6001 22.3367 85.565 22.4081C85.5299 22.4795 85.4718 22.5369 85.4 22.5712C85.3467 22.5712 80.2004 25.0377 80.8203 29.544C81.2736 32.8771 82.8602 36.9167 83.7735 39.0632C83.8696 38.4139 84.2019 37.8229 84.7067 37.4034C85.1077 37.0693 85.6114 36.8833 86.1333 36.8767Z" fill="black"/>
<path d="M87.7731 42.1363C87.7276 42.1355 87.6827 42.1257 87.641 42.1074C87.5993 42.0892 87.5615 42.0629 87.53 42.0301C87.4984 41.9973 87.4736 41.9586 87.457 41.9162C87.4404 41.8738 87.4323 41.8286 87.4332 41.783C87.4125 41.4077 87.2718 41.0489 87.0317 40.7597C86.7917 40.4704 86.465 40.266 86.0999 40.1765C86.0562 40.1636 86.0154 40.142 85.9802 40.1131C85.9449 40.0841 85.9158 40.0484 85.8947 40.0079C85.8735 39.9675 85.8607 39.9232 85.8571 39.8777C85.8534 39.8323 85.8589 39.7865 85.8733 39.7432C85.8869 39.6992 85.9092 39.6583 85.9388 39.623C85.9684 39.5877 86.0047 39.5586 86.0457 39.5375C86.0867 39.5164 86.1314 39.5037 86.1774 39.5001C86.2233 39.4965 86.2695 39.5021 86.3133 39.5165C86.8127 39.6577 87.2543 39.954 87.5742 40.3626C87.8942 40.7712 88.0759 41.271 88.0931 41.7897C88.0934 41.8772 88.0605 41.9616 88.0012 42.0259C87.9418 42.0901 87.8604 42.1296 87.7731 42.1363Z" fill="black"/>
<path d="M87.6064 42.9029C87.2531 42.9029 86.9932 42.5296 86.9932 42.0229C86.9932 41.5163 87.2531 41.1497 87.6064 41.1497C87.9598 41.1497 88.2131 41.5163 88.2131 42.0229C88.2131 42.5296 87.9931 42.9029 87.6064 42.9029Z" fill="black"/>
<path d="M84.0801 40.4898C84.0801 40.4898 84.5734 44.1695 87.0465 45.5028C87.0465 45.5028 86.6265 51.6356 86.3799 52.5089C86.3799 52.5089 83.9867 53.2688 83.6668 49.9891C83.2201 45.4161 83.3201 41.883 82.0135 35.6035" fill="black"/>
<path d="M85.8266 52.9356C85.385 52.9385 84.9521 52.8135 84.58 52.5756C84.1922 52.2721 83.878 51.8848 83.6609 51.4426C83.4439 51.0005 83.3297 50.515 83.3268 50.0225C83.2001 48.7359 83.1201 47.5094 83.0401 46.3228C82.8657 42.7389 82.42 39.1735 81.7069 35.6569C81.7104 35.5792 81.7395 35.5049 81.7896 35.4454C81.8396 35.3859 81.908 35.3445 81.9839 35.3278C82.0599 35.3111 82.1393 35.3199 82.2097 35.3529C82.2801 35.3859 82.3377 35.4412 82.3735 35.5103C83.0878 39.0536 83.5335 42.6457 83.7068 46.2561C83.7867 47.436 83.8734 48.656 83.9934 49.9359C83.9925 50.316 84.0743 50.6917 84.2331 51.0371C84.392 51.3824 84.6241 51.6891 84.9133 51.9357C85.2568 52.1505 85.6674 52.2312 86.0666 52.1623C86.2399 51.0824 86.5199 47.3427 86.6399 45.6428C84.2067 44.1696 83.7068 40.6366 83.6868 40.4832C83.6754 40.3922 83.7006 40.3004 83.7569 40.228C83.8131 40.1555 83.8958 40.1083 83.9867 40.0966C84.0775 40.085 84.1692 40.1092 84.2426 40.1639C84.316 40.2186 84.3652 40.2996 84.38 40.3899C84.38 40.4299 84.88 43.9096 87.1665 45.1429C87.2257 45.1753 87.2747 45.2238 87.3077 45.2827C87.3407 45.3417 87.3564 45.4087 87.3531 45.4762C87.3531 45.7228 86.9198 51.6491 86.6865 52.5423C86.6721 52.6 86.643 52.653 86.6021 52.6962C86.5613 52.7394 86.51 52.7713 86.4532 52.789C86.2518 52.8654 86.041 52.9147 85.8266 52.9356Z" fill="black"/>
<path d="M104.465 61.3149C104.412 61.3173 104.359 61.3058 104.312 61.2816C103.933 61.0698 103.607 60.7741 103.36 60.4171C103.112 60.0601 102.95 59.6512 102.885 59.2218C102.645 58.1952 102.745 56.9553 103.092 56.5086C103.148 56.4361 103.232 56.3891 103.323 56.3779C103.414 56.3666 103.506 56.3921 103.579 56.4486C103.651 56.5052 103.698 56.5883 103.709 56.6795C103.721 56.7708 103.695 56.8628 103.639 56.9353C103.402 57.6228 103.374 58.3651 103.559 59.0684C103.611 59.3943 103.733 59.705 103.918 59.9789C104.102 60.2528 104.343 60.4835 104.625 60.655C104.706 60.6977 104.768 60.7702 104.796 60.8573C104.825 60.9444 104.818 61.0391 104.778 61.1216C104.75 61.1805 104.706 61.2301 104.65 61.2644C104.595 61.2986 104.53 61.3162 104.465 61.3149Z" fill="black"/>
<path d="M93.326 145.242C92.7327 145.242 92.2194 145.242 91.7928 145.188C91.3662 145.135 90.7862 145.088 90.2129 145.008C90.1227 144.995 90.0411 144.948 89.9852 144.875C89.9293 144.803 89.9034 144.712 89.913 144.622C89.9187 144.576 89.9335 144.532 89.9564 144.492C89.9794 144.452 90.0101 144.417 90.0467 144.389C90.0833 144.361 90.1251 144.341 90.1697 144.329C90.2143 144.318 90.2607 144.315 90.3063 144.322C90.8662 144.395 91.3862 144.455 91.8528 144.495C97.3524 144.982 118.391 142.022 119.777 141.795C120.791 141.622 121.384 140.835 121.704 139.242C121.871 138.409 120.924 135.243 120.244 133.283C120.237 133.252 120.237 133.22 120.244 133.189C119.784 124.937 120.364 96.7188 121.191 87.4462C121.193 87.4003 121.205 87.3554 121.225 87.3142C121.245 87.2729 121.274 87.2363 121.309 87.2064C121.344 87.1764 121.384 87.1539 121.428 87.1401C121.472 87.1264 121.518 87.1216 121.564 87.1262C121.656 87.1347 121.742 87.1793 121.802 87.2505C121.862 87.3216 121.891 87.4135 121.884 87.5062C121.064 96.7455 120.484 124.837 120.937 133.103C121.177 133.769 122.657 138.122 122.404 139.376C122.15 140.629 121.651 142.189 119.911 142.482C118.577 142.695 100.445 145.242 93.326 145.242Z" fill="black"/>
<path d="M71.2545 108.138C71.1625 108.138 71.0744 108.101 71.0093 108.036C70.9443 107.971 70.9078 107.883 70.9078 107.791C70.8678 98.7252 70.6478 92.3791 70.2412 89.9126C70.2337 89.8674 70.2353 89.8211 70.2461 89.7766C70.2569 89.732 70.2766 89.6901 70.304 89.6534C70.3314 89.6167 70.366 89.5859 70.4056 89.5628C70.4452 89.5398 70.489 89.525 70.5345 89.5193C70.5796 89.5127 70.6256 89.515 70.6697 89.5262C70.7139 89.5374 70.7555 89.5571 70.792 89.5844C70.8285 89.6116 70.8593 89.6458 70.8826 89.685C70.9059 89.7241 70.9213 89.7675 70.9278 89.8126C71.4144 93.0057 71.5478 101.352 71.5944 107.811C71.5953 107.857 71.587 107.902 71.5699 107.945C71.5528 107.987 71.5273 108.026 71.4949 108.058C71.4626 108.091 71.424 108.116 71.3815 108.133C71.339 108.15 71.2936 108.159 71.2478 108.158L71.2545 108.138Z" fill="black"/>
<path d="M57.9954 101.765C57.9286 101.765 57.8631 101.747 57.8064 101.711C57.7498 101.676 57.7044 101.625 57.6754 101.565C54.569 94.8988 39.7834 79.5 37.7902 77.4402L30.1175 83.6797C30.0456 83.7382 29.9536 83.766 29.8613 83.7573C29.769 83.7486 29.6839 83.7039 29.6242 83.633C29.5948 83.5974 29.5728 83.5562 29.5595 83.5119C29.5462 83.4676 29.542 83.4211 29.5469 83.3751C29.5519 83.3292 29.566 83.2847 29.5884 83.2442C29.6109 83.2038 29.6412 83.1683 29.6775 83.1397L37.5969 76.6935C37.6607 76.6355 37.7439 76.6033 37.8302 76.6033C37.9165 76.6033 37.9997 76.6355 38.0635 76.6935C38.7302 77.4002 54.9423 94.0255 58.3087 101.238C58.3477 101.322 58.352 101.418 58.3209 101.506C58.2897 101.593 58.2254 101.665 58.142 101.705C58.0977 101.735 58.0478 101.755 57.9954 101.765Z" fill="black"/>
<path d="M132.49 94.7256C132.401 94.7257 132.316 94.6919 132.251 94.6312C132.187 94.5705 132.148 94.4873 132.143 94.3989C132.093 92.9233 132.178 91.4461 132.396 89.9859C132.915 86.2295 133.954 82.5635 135.483 79.0934C139.183 70.6007 141.876 62.948 141.902 62.868C141.92 62.8189 141.948 62.7743 141.985 62.7374C142.022 62.7005 142.067 62.6723 142.116 62.6547C142.162 62.6337 142.212 62.6228 142.262 62.6228C142.313 62.6228 142.363 62.6337 142.409 62.6547C142.456 62.6547 146.955 65.3745 151.075 64.8812C151.124 64.8618 151.177 64.8539 151.229 64.858C151.282 64.8621 151.333 64.8781 151.378 64.9049C151.424 64.9317 151.463 64.9685 151.492 65.0125C151.521 65.0565 151.539 65.1066 151.546 65.1589C151.553 65.2112 151.548 65.2643 151.531 65.3143C151.514 65.3643 151.486 65.4098 151.449 65.4473C151.412 65.4848 151.367 65.5133 151.317 65.5307C151.267 65.5482 151.214 65.554 151.162 65.5478C147.475 65.9878 143.642 64.0879 142.449 63.4346C141.849 65.1078 139.383 71.894 136.143 79.3134C132.476 87.7261 132.863 94.2323 132.863 94.2923C132.869 94.3838 132.838 94.474 132.779 94.5437C132.719 94.6134 132.634 94.6571 132.543 94.6656L132.49 94.7256Z" fill="black"/>
<path d="M66.848 183.425C66.7566 183.425 66.6687 183.39 66.6028 183.327C66.5369 183.263 66.4982 183.177 66.4947 183.085C65.9414 167.087 66.7414 155.901 67.5146 149.315C67.8599 145.741 68.4727 142.198 69.3478 138.715C69.3605 138.672 69.3817 138.631 69.4102 138.595C69.4387 138.56 69.4739 138.53 69.5138 138.508C69.5537 138.486 69.5976 138.472 69.6429 138.467C69.6882 138.462 69.734 138.466 69.7778 138.479C69.8216 138.492 69.8624 138.513 69.898 138.541C69.9336 138.57 69.9632 138.605 69.9852 138.645C70.0072 138.685 70.0211 138.729 70.0261 138.774C70.0311 138.819 70.0271 138.865 70.0145 138.909C69.1578 142.367 68.5519 145.883 68.2013 149.428C67.4347 155.974 66.6614 167.147 67.1947 183.065C67.1965 183.158 67.1619 183.248 67.0983 183.315C67.0347 183.382 66.9472 183.422 66.8547 183.425H66.848Z" fill="black"/>
<path d="M80.6137 150.048L72.8743 149.561C72.7817 149.554 72.6955 149.511 72.6344 149.442C72.5733 149.372 72.5421 149.281 72.5476 149.188C72.5545 149.095 72.5975 149.009 72.6673 148.948C72.7372 148.887 72.8283 148.856 72.9209 148.861L80.547 149.348C80.8536 149.148 82.0002 148.275 82.4202 146.075C82.4202 146.024 82.4316 145.973 82.4535 145.927C82.4755 145.88 82.5074 145.839 82.5471 145.807C82.5867 145.774 82.6331 145.751 82.6829 145.739C82.7326 145.726 82.7845 145.725 82.8348 145.735C82.8851 145.745 82.9325 145.766 82.9737 145.797C83.0148 145.827 83.0487 145.867 83.0728 145.912C83.0969 145.957 83.1107 146.007 83.1131 146.059C83.1155 146.11 83.1065 146.161 83.0868 146.208C82.5469 149.055 80.8536 149.975 80.7803 150.008C80.7292 150.036 80.6718 150.049 80.6137 150.048Z" fill="black"/>
<path d="M110.878 150.421C110.2 150.493 109.514 150.402 108.878 150.155C108.338 149.675 107.505 146.962 107.265 146.155C107.24 146.068 107.251 145.974 107.294 145.894C107.338 145.814 107.411 145.755 107.498 145.728C107.542 145.714 107.588 145.709 107.634 145.713C107.68 145.717 107.724 145.73 107.765 145.752C107.805 145.774 107.841 145.804 107.87 145.84C107.898 145.876 107.919 145.917 107.932 145.962C108.263 147.236 108.733 148.469 109.331 149.641C109.805 149.848 113.078 149.708 115.998 149.441C116.09 149.434 116.182 149.464 116.253 149.523C116.324 149.583 116.369 149.669 116.378 149.761C116.381 149.807 116.376 149.853 116.362 149.896C116.348 149.94 116.325 149.98 116.295 150.015C116.265 150.049 116.229 150.078 116.188 150.098C116.148 150.119 116.103 150.131 116.058 150.135C114.304 150.281 112.325 150.421 110.878 150.421Z" fill="black"/>
<path d="M122.73 179.899C122.639 179.899 122.55 179.863 122.485 179.798C122.42 179.733 122.384 179.644 122.384 179.553C122.384 160.567 120.944 150.221 120.077 145.775C120.058 145.728 120.049 145.677 120.051 145.625C120.053 145.574 120.067 145.524 120.091 145.479C120.115 145.434 120.149 145.394 120.19 145.364C120.232 145.333 120.279 145.312 120.329 145.302C120.38 145.292 120.432 145.293 120.481 145.305C120.531 145.318 120.577 145.341 120.617 145.374C120.657 145.406 120.689 145.447 120.711 145.494C120.733 145.54 120.744 145.591 120.744 145.642C121.617 150.135 123.084 160.507 123.07 179.553C123.07 179.643 123.035 179.731 122.971 179.795C122.908 179.86 122.821 179.897 122.73 179.899Z" fill="black"/>
<path d="M94.9593 185.885C94.869 185.884 94.7828 185.848 94.7183 185.784C94.6538 185.721 94.616 185.636 94.6126 185.545C94.4793 179.493 94.5193 173.686 94.5326 172.513C93.9327 172.18 92.1861 171.08 91.6595 169.293C91.0529 167.247 93.1727 153.895 93.2594 153.328C93.2757 153.237 93.3266 153.157 93.4013 153.103C93.4759 153.05 93.5685 153.028 93.6594 153.041C93.7045 153.048 93.7478 153.063 93.787 153.086C93.8261 153.11 93.8603 153.141 93.8876 153.177C93.9148 153.214 93.9346 153.255 93.9458 153.299C93.9569 153.344 93.9593 153.389 93.9527 153.435C93.3394 157.261 91.8595 167.52 92.3261 169.1C92.8661 170.92 94.9926 171.98 95.0326 171.993C95.092 172.021 95.142 172.065 95.1764 172.121C95.2108 172.176 95.228 172.241 95.2259 172.306C95.2259 172.373 95.1592 178.799 95.3126 185.525C95.3126 185.619 95.2765 185.708 95.2119 185.775C95.1472 185.842 95.0591 185.882 94.9659 185.885H94.9593Z" fill="black"/>
<path d="M127.5 37V39H162V37H161.5V35.5L161 35H160.5V21L161.5 20.5V19H162V17L160.5 16.5L160 12L158.5 8.5L155 4L150 1L146 0.5H141.5L137 2.5L134 5L131 8.5L130 11.5L129.5 14L129 16.5H127.5V17V18.5L128.5 19V20.5L129 21V35H128.5V37H127.5Z" fill="#F4F8FB"/>
<path d="M160.877 21.1565C160.874 22.7457 160.871 24.335 160.87 25.9238C160.868 28.7035 160.87 31.4827 160.87 34.2624C160.87 34.3656 160.874 34.4692 160.877 34.5723C160.889 34.5843 160.901 34.5968 160.913 34.6093C161.031 34.6119 161.149 34.6164 161.268 34.6168C161.605 34.6177 161.673 34.6866 161.674 35.0339C161.674 35.4781 161.674 35.9224 161.674 36.3666C161.674 36.4249 161.674 36.4836 161.674 36.5703C161.792 36.5703 161.901 36.5676 162.008 36.5707C162.246 36.5774 162.377 36.7015 162.378 36.9358C162.382 37.5948 162.382 38.2538 162.378 38.9124C162.376 39.2196 162.271 39.3197 161.964 39.3201C159.399 39.321 156.834 39.321 154.269 39.3201C153.947 39.3201 153.86 39.2352 153.858 38.9155C153.855 38.2787 153.856 37.6419 153.858 37.0052C153.859 36.6534 153.94 36.5721 154.281 36.5698C154.362 36.5694 154.444 36.5698 154.558 36.5698C154.558 36.3831 154.558 36.2021 154.558 36.0211C154.558 35.6952 154.558 35.3696 154.558 35.0437C154.559 34.6648 154.654 34.5728 155.042 34.5723C155.144 34.5723 155.246 34.5723 155.356 34.5723V21.156C155.224 21.156 155.086 21.1569 154.95 21.156C154.676 21.1542 154.56 21.0377 154.559 20.7487C154.556 20.2529 154.558 19.7566 154.557 19.2604C154.557 19.2324 154.552 19.2043 154.548 19.1581C154.424 19.1581 154.307 19.1545 154.19 19.159C153.977 19.167 153.867 19.0447 153.864 18.8548C153.856 18.1367 153.857 17.4185 153.864 16.7008C153.867 16.4749 154.028 16.4087 154.226 16.4082C154.655 16.4073 155.083 16.4082 155.538 16.4082C155.505 16.0302 155.491 15.6669 155.437 15.3099C155.349 14.7331 155.237 14.1604 155.13 13.5863C155.104 13.4453 155.062 13.3066 155.022 13.1688C154.887 12.7098 154.886 12.7183 154.406 12.7236C153.881 12.7294 153.353 12.7428 152.829 12.7094C151.982 12.6556 151.177 12.4017 150.381 12.1247C149.603 11.8538 148.831 11.567 148.053 11.3002C147.389 11.0726 146.707 10.9245 146 10.993C145.753 11.017 145.511 11.0948 145.242 11.153C145.554 11.4812 145.746 11.8432 145.686 12.2652C145.657 12.4706 145.542 12.7134 145.386 12.8428C144.911 13.2363 144.278 13.3746 143.824 12.9228C143.45 12.5511 143.41 11.8387 144.122 11.1508C143.863 11.0752 143.633 10.9916 143.397 10.9418C142.312 10.7146 141.306 10.9725 140.331 11.4403C139.68 11.7525 139.028 12.0695 138.355 12.3279C137.949 12.4835 137.505 12.5587 137.072 12.6196C136.688 12.6734 136.295 12.6685 135.906 12.6685C135.566 12.6685 135.225 12.6391 134.858 12.6218C134.425 13.8082 134.158 15.0662 134.176 16.4091C134.564 16.4091 134.946 16.4251 135.327 16.4047C135.693 16.3851 135.859 16.5256 135.845 16.928C135.824 17.5123 135.84 18.0975 135.84 18.6827C135.84 19.0865 135.767 19.159 135.364 19.1603C135.299 19.1603 135.233 19.1603 135.144 19.1603C135.144 19.6526 135.132 20.131 135.147 20.6091C135.16 20.9942 135.05 21.1716 134.615 21.1338C134.529 21.1262 134.441 21.1329 134.344 21.1329V34.599C134.47 34.599 134.592 34.5981 134.715 34.599C135.044 34.6017 135.142 34.6969 135.143 35.0219C135.144 35.5311 135.143 36.0407 135.143 36.5716C135.267 36.5716 135.378 36.56 135.485 36.5738C135.747 36.6081 135.832 36.6792 135.835 36.902C135.843 37.5979 135.842 38.2938 135.836 38.9898C135.833 39.2188 135.701 39.321 135.436 39.3215C133.983 39.3224 132.53 39.3219 131.077 39.3219C129.965 39.3219 128.852 39.3219 127.741 39.3219C127.417 39.3219 127.324 39.2281 127.324 38.9022C127.323 38.2801 127.323 37.6584 127.323 37.0363C127.323 36.6272 127.38 36.5721 127.798 36.5712C127.864 36.5712 127.931 36.5712 128.027 36.5712C128.027 36.2328 128.027 35.9028 128.027 35.5724C128.027 35.3723 128.025 35.1727 128.028 34.9726C128.032 34.7106 128.15 34.5884 128.417 34.575C128.548 34.5683 128.681 34.5737 128.823 34.5737V21.1574C128.69 21.1574 128.565 21.1578 128.441 21.1574C128.152 21.1556 128.029 21.0342 128.028 20.7403C128.026 20.2231 128.028 19.7059 128.028 19.1599C127.907 19.1599 127.799 19.1617 127.691 19.1599C127.413 19.1545 127.326 19.0763 127.326 18.8064C127.322 18.118 127.323 17.4292 127.326 16.7408C127.326 16.5318 127.442 16.4149 127.653 16.4122C128.038 16.4069 128.424 16.4109 128.843 16.4109C128.843 16.2459 128.842 16.0858 128.843 15.9262C128.851 15.1169 128.962 14.32 129.095 13.5227C129.251 12.5902 129.5 11.6849 129.819 10.7991C130.247 9.61313 130.8 8.48765 131.48 7.4231C132.165 6.35232 132.956 5.36869 133.865 4.48423C134.787 3.58688 135.802 2.80247 136.916 2.15102C137.931 1.55782 138.989 1.0629 140.113 0.714272C141.052 0.423454 142.006 0.219792 142.982 0.0912806C143.94 -0.0345627 144.898 -0.00299068 145.852 0.0268026C146.557 0.0485917 147.258 0.219347 147.961 0.321623C148.803 0.443909 149.603 0.716495 150.397 1.00687C151.378 1.36572 152.32 1.81618 153.179 2.40582C153.95 2.93498 154.713 3.48949 155.413 4.10804C156.691 5.23752 157.744 6.56265 158.6 8.04209C159.192 9.06706 159.673 10.1401 160.034 11.2678C160.306 12.1189 160.538 12.9798 160.644 13.8682C160.718 14.4823 160.765 15.0995 160.824 15.7154C160.845 15.94 160.868 16.1641 160.893 16.4109C161.243 16.4109 161.597 16.41 161.951 16.4109C162.284 16.4118 162.382 16.5114 162.383 16.8444C162.384 17.4737 162.383 18.1029 162.383 18.7325C162.383 19.066 162.285 19.1608 161.943 19.1612C161.863 19.1612 161.783 19.1612 161.679 19.1612C161.679 19.6561 161.679 20.1355 161.679 20.6144C161.679 21.0907 161.655 21.1138 161.178 21.1142C161.089 21.1142 161.001 21.1191 160.913 21.1218C160.901 21.1342 160.888 21.1462 160.877 21.1587V21.1565ZM161.002 36.5632C161.019 36.5512 161.036 36.5391 161.053 36.5276V35.2211H155.191V36.5489C155.215 36.5578 155.228 36.5667 155.241 36.5667C157.161 36.5658 159.082 36.5645 161.002 36.5632ZM134.517 35.2398C134.469 35.2296 134.421 35.2109 134.374 35.2109C132.516 35.2091 130.659 35.2091 128.802 35.2105C128.754 35.2105 128.706 35.2233 128.66 35.2296V36.5271C128.675 36.5391 128.69 36.5507 128.705 36.5627C129.17 36.5649 129.635 36.5698 130.1 36.5694C131.563 36.568 133.025 36.5645 134.488 36.5623C134.499 36.5507 134.511 36.5391 134.523 36.5271C134.523 36.1127 134.524 35.6978 134.524 35.2834C134.525 35.278 134.529 35.2723 134.527 35.2678C134.525 35.258 134.521 35.2491 134.517 35.2398ZM128.705 19.1657C128.69 19.1777 128.675 19.1897 128.66 19.2017V20.5135H134.523C134.523 20.0701 134.523 19.6361 134.523 19.2021L134.488 19.1674C132.56 19.1674 130.633 19.1661 128.705 19.1657ZM161.002 19.1657C160.559 19.1634 160.115 19.159 159.672 19.1594C158.188 19.1608 156.703 19.1643 155.219 19.1665L155.183 19.2017V20.5135H161.047V19.2017C161.032 19.1897 161.017 19.1777 161.002 19.1657ZM135.156 17.0334C134.564 17.0312 133.973 17.0268 133.382 17.0272C131.586 17.0285 129.789 17.0312 127.994 17.0334C127.979 17.0454 127.965 17.0574 127.951 17.0695V18.5271H135.199V17.0414L135.156 17.0334ZM161.713 17.0334C161.676 17.0312 161.639 17.0272 161.603 17.0272C159.285 17.0272 156.966 17.0268 154.648 17.0272C154.592 17.0272 154.536 17.037 154.487 17.0414V18.5253H161.752V17.0695C161.739 17.0574 161.726 17.0454 161.713 17.0334ZM160.269 16.402C160.244 16.1379 160.221 15.8977 160.201 15.6576C160.155 15.1204 160.154 14.5753 160.057 14.0474C159.907 13.2368 159.723 12.4293 159.494 11.6377C159.137 10.4038 158.605 9.24227 157.935 8.14214C157.039 6.67071 155.956 5.36603 154.641 4.24411C153.699 3.44058 152.68 2.76245 151.585 2.19638C150.756 1.76815 149.881 1.44977 148.985 1.18474C147.998 0.892587 146.988 0.719163 145.966 0.6409C145.361 0.594654 144.75 0.622224 144.142 0.636898C143.719 0.647126 143.295 0.682255 142.873 0.723165C142.053 0.802317 141.26 1.01087 140.473 1.24388C139.272 1.59962 138.146 2.12656 137.074 2.76734C136.216 3.2805 135.411 3.87503 134.683 4.55894C134.152 5.05787 133.663 5.60393 133.178 6.14866C132.485 6.92639 131.918 7.79662 131.424 8.70954C130.796 9.86793 130.283 11.0783 129.973 12.3626C129.821 12.9904 129.712 13.6285 129.599 14.2649C129.546 14.5641 129.526 14.8701 129.499 15.1734C129.463 15.5785 129.436 15.984 129.405 16.3989H133.529C133.568 15.8786 133.564 15.3615 133.654 14.8612C133.777 14.1764 133.948 13.4983 134.141 12.829C134.44 11.7889 134.933 10.8302 135.532 9.93418C136.053 9.15511 136.646 8.42584 137.37 7.82108C137.817 7.44889 138.282 7.09937 138.748 6.75119C138.816 6.7005 138.95 6.67471 139.021 6.70761C139.113 6.74986 139.239 6.86814 139.233 6.94285C139.222 7.06069 139.14 7.21099 139.04 7.27591C138.313 7.75394 137.666 8.32535 137.08 8.96079C136.547 9.53798 136.077 10.1708 135.69 10.8578C135.484 11.2242 135.295 11.6004 135.098 11.9726C135.108 11.9988 135.118 12.0255 135.128 12.0517C135.622 12.0517 136.12 12.0917 136.608 12.0411C137.129 11.9868 137.662 11.9054 138.152 11.7298C138.843 11.4821 139.5 11.1397 140.17 10.8333C140.77 10.5585 141.39 10.3366 142.049 10.2801C142.915 10.2063 143.764 10.2957 144.565 10.6755C144.638 10.7097 144.753 10.703 144.829 10.6706C145.796 10.2619 146.779 10.273 147.762 10.5803C148.533 10.8213 149.294 11.0926 150.055 11.3634C151.232 11.7827 152.414 12.1722 153.69 12.1215C153.996 12.1095 154.303 12.1198 154.626 12.1198C154.606 12.0477 154.601 12.0184 154.589 11.9921C154.028 10.7497 153.305 9.60868 152.319 8.6633C151.766 8.13324 151.137 7.6819 150.536 7.20254C150.336 7.0429 150.271 6.89571 150.372 6.74408C150.466 6.60356 150.713 6.5711 150.888 6.69694C151.266 6.96819 151.659 7.22477 152.004 7.53427C152.463 7.94693 152.919 8.37381 153.309 8.84917C153.783 9.42636 154.223 10.0387 154.611 10.6763C155.129 11.5279 155.497 12.4546 155.725 13.4276C155.858 13.9941 155.971 14.5668 156.058 15.1418C156.11 15.4806 156.086 15.8301 156.113 16.1739C156.119 16.2548 156.192 16.3967 156.239 16.398C156.74 16.4144 157.242 16.4082 157.754 16.4082C157.754 16.3131 157.754 16.2406 157.754 16.1681C157.754 16.0867 157.749 16.0049 157.755 15.924C157.767 15.7537 157.926 15.6007 158.078 15.6078C158.283 15.6176 158.379 15.7279 158.377 15.9471C158.376 16.0987 158.377 16.2508 158.377 16.4015L160.269 16.402ZM160.243 34.5892V21.1454H155.994V34.5892H160.243ZM129.464 21.1396V34.5835H133.712V21.1396H129.464ZM161.753 37.1986H154.482V38.694H161.753V37.1986ZM127.95 38.6909H135.215V37.1973H127.95V38.6909ZM144.728 11.4959C144.455 11.6213 144.17 11.993 144.145 12.2398C144.14 12.2843 144.165 12.335 144.185 12.3786C144.311 12.6574 144.549 12.6191 144.858 12.4866C145.074 12.3937 145.142 12.218 145.043 11.9979C144.962 11.8178 144.833 11.6595 144.728 11.4959Z" fill="black"/>
<path d="M146.89 3.32055C147.635 2.62152 148.722 2.89811 149.275 3.41927C149.774 3.88929 149.991 4.45136 149.922 5.12149C149.884 5.48257 149.733 5.80807 149.486 6.07665C148.786 6.83571 147.933 7.40535 147.081 7.97364C146.989 8.03545 146.788 8.04835 146.702 7.98965C145.872 7.42402 145.024 6.87707 144.338 6.12957C143.68 5.41275 143.651 4.50739 144.224 3.73366C144.631 3.18404 145.17 2.86654 145.877 2.899C146.26 2.91634 146.598 3.05019 146.889 3.321L146.89 3.32055ZM149.303 4.89026C149.324 4.398 149.112 4.05026 148.741 3.78079C148.293 3.45573 147.623 3.35168 147.203 3.89907C147.024 4.13253 146.785 4.12942 146.597 3.90174C146.42 3.68785 146.202 3.54556 145.929 3.52066C145.404 3.47308 144.965 3.66829 144.611 4.27038C144.33 4.75063 144.413 5.30292 144.781 5.69379C145.371 6.31989 146.068 6.80992 146.776 7.28973C146.901 7.37466 146.979 7.30885 147.065 7.24482C147.583 6.85884 148.113 6.48664 148.613 6.07843C148.99 5.77072 149.357 5.43232 149.302 4.88981L149.303 4.89026Z" fill="black"/>
<path d="M140.134 4.85163C140.085 3.8938 141.07 2.76032 142.3 2.89817C142.78 2.95198 143.133 3.22367 143.419 3.58875C143.538 3.73994 143.499 3.95027 143.369 4.03921C143.214 4.14415 143.01 4.11658 142.908 3.9485C142.571 3.39265 141.806 3.43401 141.383 3.72527C141.02 3.97562 140.793 4.33136 140.727 4.7587C140.68 5.06019 140.791 5.3679 140.998 5.58357C141.356 5.95532 141.747 6.29816 142.144 6.62989C142.416 6.85757 142.729 7.03677 143.01 7.256C143.142 7.3596 143.24 7.34271 143.358 7.25688C143.518 7.14127 143.675 7.02165 143.844 6.92115C143.938 6.86512 144.053 6.81621 144.158 6.81666C144.242 6.81666 144.389 6.88825 144.397 6.94339C144.413 7.06034 144.398 7.23865 144.321 7.30002C144.024 7.5397 143.708 7.76026 143.377 7.95147C143.273 8.01194 143.066 8.01328 142.969 7.94836C142.15 7.40274 141.326 6.86112 140.651 6.13185C140.318 5.77211 140.117 5.35501 140.134 4.85163H140.134Z" fill="black"/>
<path d="M142.216 60.5217C142.14 60.5227 142.066 60.4983 142.005 60.4524C141.945 60.4065 141.902 60.3417 141.882 60.2684C141.492 58.976 140.964 57.729 140.309 56.5487C137.749 51.7557 138.723 46.8027 139.189 44.4163C139.242 44.1229 139.296 43.8696 139.329 43.6496C139.343 43.5777 139.379 43.5117 139.431 43.4605C139.483 43.4092 139.55 43.3752 139.622 43.363C139.92 43.3366 140.219 43.3702 140.503 43.4618C140.787 43.5534 141.05 43.7011 141.276 43.8963C142.082 44.5629 142.489 45.8428 142.489 47.616C142.489 49.1492 142.789 49.5825 143.156 50.0758C143.679 50.8337 143.968 51.7283 143.989 52.649C144.008 52.6985 144.015 52.7516 144.01 52.8044C144.005 52.8572 143.989 52.9082 143.961 52.9535C143.933 52.9987 143.896 53.037 143.851 53.0655C143.806 53.0939 143.756 53.1117 143.703 53.1175C143.65 53.1233 143.597 53.117 143.547 53.0989C143.497 53.0809 143.452 53.0516 143.415 53.0135C143.379 52.9753 143.351 52.9292 143.335 52.8787C143.319 52.8282 143.314 52.7747 143.322 52.7223C143.297 51.9116 143.03 51.1269 142.556 50.4691C142.182 49.9225 141.796 49.3559 141.796 47.6093C141.796 46.0695 141.456 44.9429 140.822 44.4229C140.583 44.2141 140.285 44.0838 139.969 44.0496C139.936 44.2029 139.909 44.3696 139.869 44.5496C139.416 46.8494 138.476 51.6357 140.929 56.2087C141.601 57.436 142.143 58.7294 142.549 60.0684C142.562 60.1126 142.566 60.159 142.561 60.2048C142.556 60.2507 142.542 60.2951 142.52 60.3355C142.498 60.3758 142.467 60.4113 142.431 60.4399C142.395 60.4684 142.353 60.4894 142.309 60.5017L142.216 60.5217Z" fill="black"/>
<path d="M37.197 77.7203C37.1481 77.7208 37.0997 77.711 37.0549 77.6915C37.0101 77.6719 36.9699 77.6432 36.937 77.607C35.3438 75.8338 35.1772 73.8806 34.9772 71.6075C34.8691 69.2234 34.3737 66.8729 33.5106 64.648C32.6307 62.4682 30.5109 60.0817 29.7709 59.3151C29.0443 60.3883 29.6909 61.9282 30.2175 63.1814C30.3858 63.5604 30.5348 63.9475 30.6642 64.3413C31.0508 65.7679 30.4509 69.7676 30.4242 69.9409C30.4079 70.0318 30.3572 70.1129 30.2828 70.1675C30.2084 70.222 30.1158 70.2459 30.0242 70.2342C29.9334 70.2179 29.8523 70.1673 29.7977 70.0928C29.7431 70.0184 29.7192 69.9258 29.7309 69.8343C29.9042 68.721 30.2775 65.5946 29.9909 64.5013C29.8752 64.1333 29.7372 63.7727 29.5776 63.4214C28.9576 61.9415 28.111 59.9084 29.5109 58.5151C29.5432 58.4827 29.5817 58.4572 29.6241 58.44C29.6664 58.4228 29.7119 58.4144 29.7576 58.4151C29.8036 58.4117 29.8498 58.4189 29.8926 58.4363C29.9354 58.4536 29.9736 58.4806 30.0042 58.5151C30.1309 58.6418 33.0373 61.6016 34.1639 64.3813C35.0529 66.6681 35.5661 69.0835 35.6838 71.5341C35.8704 73.7606 36.0238 75.5338 37.4637 77.1204C37.528 77.1864 37.564 77.2749 37.564 77.367C37.564 77.4592 37.528 77.5477 37.4637 77.6137C37.4292 77.6491 37.3876 77.6769 37.3417 77.6953C37.2957 77.7137 37.2464 77.7222 37.197 77.7203Z" fill="black"/>
<path d="M30.3775 67.5212C30.2793 67.5191 30.1859 67.4784 30.1175 67.4078C30.0309 67.3079 21.1516 57.7286 20.1183 56.8687C19.8924 56.6633 19.609 56.5321 19.3063 56.4928C19.0035 56.4535 18.696 56.5079 18.4251 56.6487C18.0451 56.9753 18.3651 57.6553 18.5851 58.0352C20.1355 60.4022 21.8134 62.6832 23.6114 64.868L23.9914 65.348C24.0194 65.3839 24.04 65.425 24.0522 65.4688C24.0644 65.5127 24.0677 65.5586 24.0622 65.6038C24.0566 65.6489 24.0422 65.6926 24.0197 65.7322C23.9973 65.7718 23.9673 65.8066 23.9314 65.8346C23.8597 65.892 23.7682 65.9186 23.677 65.9086C23.5858 65.8986 23.5023 65.8528 23.4447 65.7813L23.0648 65.3147C21.2541 63.1069 19.5629 60.8038 17.9985 58.4152C17.1919 57.0486 17.7185 56.3754 17.9985 56.1487C18.3903 55.8963 18.8533 55.7775 19.3183 55.8099C19.7833 55.8424 20.2253 56.0244 20.5783 56.3287C21.6315 57.222 30.2642 66.5346 30.6642 66.9346C30.6968 66.9668 30.7227 67.0052 30.7404 67.0475C30.7581 67.0899 30.7672 67.1353 30.7672 67.1812C30.7672 67.2271 30.7581 67.2725 30.7404 67.3149C30.7227 67.3572 30.6968 67.3956 30.6642 67.4278C30.626 67.4632 30.5806 67.4898 30.5311 67.506C30.4816 67.5221 30.4292 67.5273 30.3775 67.5212Z" fill="black"/>
<path d="M24.1247 70.0808C23.5709 70.0489 23.0423 69.8384 22.6182 69.4808H22.5848L19.2517 65.7945C18.9225 65.401 18.7421 64.9043 18.7421 64.3912C18.7421 63.8782 18.9225 63.3815 19.2517 62.988C20.185 61.9881 21.5182 62.5214 22.0915 62.9413C22.1284 62.9684 22.1596 63.0024 22.1833 63.0416C22.207 63.0807 22.2227 63.1241 22.2295 63.1694C22.2363 63.2146 22.2341 63.2608 22.223 63.3051C22.2119 63.3495 22.1922 63.3913 22.1649 63.428C22.1383 63.4654 22.1046 63.4972 22.0657 63.5215C22.0268 63.5458 21.9835 63.5622 21.9382 63.5696C21.893 63.577 21.8467 63.5754 21.8021 63.5648C21.7574 63.5543 21.7153 63.5349 21.6782 63.508C21.6249 63.468 20.4983 62.668 19.7584 63.4613C19.0184 64.2546 19.7584 65.2412 19.825 65.3612L23.1581 69.0209C23.2714 69.1075 24.0847 69.6875 24.7313 69.2675C25.3779 68.8475 24.918 67.9343 24.9113 67.9343C24.8938 67.8905 24.8851 67.8437 24.8857 67.7966C24.8862 67.7494 24.8961 67.7029 24.9147 67.6596C24.9332 67.6162 24.9602 67.577 24.9939 67.544C25.0276 67.5111 25.0675 67.4852 25.1113 67.4677C25.1551 67.4501 25.2019 67.4414 25.249 67.442C25.2961 67.4426 25.3427 67.4524 25.386 67.471C25.4294 67.4896 25.4686 67.5165 25.5015 67.5502C25.5345 67.584 25.5604 67.6239 25.5779 67.6676C25.5779 67.7276 26.1912 69.1342 25.1513 69.8475C24.8452 70.0388 24.4834 70.1211 24.1247 70.0808Z" fill="black"/>
<path d="M23.1047 73.314C22.6167 73.2939 22.1427 73.1444 21.7315 72.8807H21.6982L17.9518 69.5876C17.5778 69.2351 17.339 68.7627 17.2769 68.2525C17.2148 67.7423 17.3333 67.2264 17.6118 66.7945C18.6118 65.4612 20.4183 66.1812 20.4983 66.2145C20.5867 66.2499 20.6574 66.3189 20.6949 66.4064C20.7324 66.4939 20.7336 66.5927 20.6983 66.6811C20.6629 66.7695 20.5939 66.8403 20.5064 66.8778C20.4189 66.9153 20.32 66.9165 20.2316 66.8811C20.1783 66.8811 18.8451 66.3345 18.1718 67.2344C17.4985 68.1344 18.3451 69.001 18.4451 69.1143L22.1582 72.3807C22.2848 72.454 23.1581 72.9673 23.7514 72.454C24.3446 71.9407 23.7914 71.1208 23.7514 71.1208C23.7057 71.0394 23.6941 70.9432 23.719 70.8533C23.744 70.7634 23.8036 70.687 23.8847 70.6408C23.9245 70.6184 23.9683 70.604 24.0137 70.5985C24.0591 70.5931 24.1051 70.5967 24.1491 70.6091C24.1931 70.6214 24.2342 70.6424 24.27 70.6707C24.3059 70.6991 24.3358 70.7342 24.358 70.7742C24.358 70.8342 25.1246 72.174 24.178 72.994C23.8697 73.2249 23.4892 73.3383 23.1047 73.314Z" fill="black"/>
<path d="M22.2781 75.6403C21.9376 75.6363 21.6016 75.5613 21.2915 75.4203C21.2915 75.4203 21.2915 75.4203 21.2582 75.4203L17.5052 73.0605C17.1188 72.799 16.836 72.4107 16.7057 71.9627C16.5755 71.5147 16.606 71.0353 16.7919 70.6074C17.3518 69.5141 18.6517 69.6074 19.2584 69.8074C19.3466 69.8378 19.4192 69.9017 19.4604 69.9854C19.5016 70.0691 19.508 70.1656 19.4783 70.2541C19.448 70.3407 19.3851 70.4121 19.3029 70.4532C19.2208 70.4943 19.1259 70.5017 19.0384 70.474C18.985 70.474 17.8385 70.0941 17.4118 70.9273C16.9852 71.7606 17.8185 72.4139 17.9185 72.4939L21.6315 74.8337C21.7582 74.887 22.5581 75.1937 22.9647 74.6804C23.3714 74.1671 22.9647 73.4205 22.9647 73.4138C22.9217 73.3323 22.9122 73.2371 22.9384 73.1487C22.9645 73.0602 23.0242 72.9855 23.1047 72.9405C23.1449 72.9183 23.1891 72.9043 23.2348 72.8993C23.2804 72.8944 23.3266 72.8985 23.3707 72.9115C23.4147 72.9246 23.4557 72.9462 23.4913 72.9752C23.5269 73.0042 23.5564 73.04 23.578 73.0805C23.7534 73.3954 23.8403 73.7518 23.8298 74.112C23.8192 74.4723 23.7115 74.823 23.518 75.127C23.3641 75.3014 23.1724 75.4383 22.9575 75.5272C22.7426 75.6162 22.5102 75.6549 22.2781 75.6403Z" fill="black"/>
<path d="M29.9043 83.7598C29.8505 83.7604 29.7974 83.7487 29.7489 83.7255C29.7003 83.7024 29.6577 83.6686 29.6243 83.6265C28.5177 82.1933 28.411 82.14 26.6912 81.2334C25.9712 80.8534 24.9846 80.3334 23.5314 79.5068C18.5318 76.6471 17.8852 73.274 17.8585 73.1273C17.8614 73.0483 17.8913 72.9726 17.9431 72.9129C17.995 72.8532 18.0657 72.813 18.1435 72.7989C18.2214 72.7849 18.3016 72.798 18.3711 72.8359C18.4405 72.8738 18.4948 72.9343 18.5251 73.0073C18.5251 73.0073 19.1918 76.2204 23.8581 78.9002C25.2979 79.7202 26.2779 80.2334 26.9978 80.6134C28.731 81.5333 28.951 81.6467 30.1576 83.1999C30.2125 83.273 30.2369 83.3646 30.2257 83.4553C30.2145 83.5461 30.1686 83.6289 30.0976 83.6865C30.0413 83.7287 29.9743 83.7541 29.9043 83.7598Z" fill="black"/>
<path d="M142.142 47.9827H142.096C142.005 47.9711 141.922 47.9238 141.866 47.8514C141.81 47.7789 141.784 47.6871 141.796 47.5961C141.842 47.2161 142.976 38.2635 143.336 36.9302C143.448 36.4775 143.703 36.0729 144.063 35.7764C144.423 35.4799 144.869 35.3071 145.335 35.2837C145.682 35.2837 146.509 35.557 146.669 37.1369C146.794 39.9986 146.758 42.8651 146.562 45.7229V46.3228C146.555 46.4142 146.513 46.4993 146.445 46.5603C146.376 46.6212 146.287 46.6532 146.195 46.6495C146.15 46.6478 146.105 46.6371 146.064 46.6181C146.022 46.599 145.985 46.572 145.954 46.5386C145.923 46.5052 145.899 46.466 145.883 46.4232C145.867 46.3805 145.86 46.335 145.862 46.2895L145.895 45.6896C146.085 42.8627 146.12 40.0276 146.002 37.1969C145.962 36.7569 145.829 36.0236 145.335 35.977C144.842 35.9303 144.242 36.4969 144.075 37.1102C143.729 38.4434 142.562 47.6027 142.556 47.6961C142.538 47.7883 142.485 47.87 142.407 47.9236C142.33 47.9771 142.235 47.9983 142.142 47.9827Z" fill="black"/>
<path d="M147.522 51.4624C146.289 51.4624 145.949 49.9959 145.935 49.9359C145.932 49.9138 145.932 49.8913 145.935 49.8692L145.829 46.1029C145.827 46.0573 145.834 46.0119 145.85 45.9692C145.866 45.9264 145.89 45.8872 145.921 45.8538C145.952 45.8203 145.989 45.7933 146.03 45.7743C146.072 45.7553 146.116 45.7446 146.162 45.7429C146.208 45.7402 146.255 45.7469 146.298 45.7628C146.342 45.7786 146.382 45.8033 146.415 45.8351C146.449 45.8669 146.476 45.9054 146.494 45.948C146.513 45.9906 146.522 46.0365 146.522 46.0829L146.629 49.8092C146.669 49.9692 146.922 50.7625 147.535 50.7625C148.328 50.7625 148.628 49.7892 148.668 49.6493L149.248 44.7363C149.248 44.5896 149.248 43.3564 148.195 43.1497C147.142 42.9431 146.655 44.2497 146.655 44.303C146.625 44.3896 146.562 44.4611 146.48 44.5021C146.398 44.5432 146.303 44.5507 146.215 44.523C146.171 44.5094 146.13 44.4871 146.095 44.4575C146.06 44.4279 146.031 44.3915 146.01 44.3506C145.988 44.3096 145.976 44.2648 145.972 44.2189C145.969 44.173 145.974 44.1268 145.989 44.083C146.215 43.4164 146.989 42.2032 148.328 42.4698C149.668 42.7364 149.962 44.0897 149.935 44.7696L149.348 49.7226C149.352 49.7379 149.352 49.7539 149.348 49.7692C149.348 49.8359 148.928 51.4091 147.549 51.4358L147.522 51.4624Z" fill="black"/>
<path d="M150.228 53.4955H150.068C148.815 53.3822 148.635 51.8623 148.628 51.8023C148.609 51.7531 148.602 51.7 148.606 51.6473C148.611 51.5947 148.627 51.5437 148.654 51.4983C148.681 51.453 148.719 51.4144 148.763 51.3857C148.807 51.3569 148.858 51.3387 148.91 51.3324C148.963 51.3261 149.016 51.3319 149.066 51.3493C149.116 51.3668 149.161 51.3954 149.198 51.433C149.235 51.4707 149.263 51.5163 149.28 51.5665C149.297 51.6166 149.302 51.6699 149.295 51.7223C149.295 51.7223 149.422 52.7356 150.108 52.8023C150.795 52.8689 151.322 51.9823 151.382 51.809L152.502 46.9894C152.502 46.8494 152.635 45.6561 151.628 45.3028C150.622 44.9495 149.755 46.2028 149.748 46.2161C149.694 46.2825 149.617 46.3267 149.532 46.3405C149.447 46.3542 149.36 46.3365 149.287 46.2907C149.215 46.2449 149.161 46.1742 149.137 46.0917C149.112 46.0093 149.119 45.9208 149.155 45.8428C149.202 45.7761 150.255 44.1296 151.822 44.6362C152.298 44.8259 152.692 45.1768 152.936 45.6276C153.179 46.0784 153.257 46.6005 153.155 47.1027L152.055 51.9823V52.0223C151.988 52.0956 151.488 53.4955 150.228 53.4955Z" fill="black"/>
<path d="M152.302 54.9155C152.169 54.9166 152.036 54.8986 151.908 54.8622C150.848 54.5822 150.655 53.3156 150.655 53.2356C150.644 53.1446 150.669 53.0528 150.725 52.9803C150.781 52.9079 150.864 52.8606 150.955 52.849C151.046 52.8393 151.138 52.8649 151.211 52.9207C151.284 52.9765 151.333 53.0582 151.348 53.149C151.348 53.149 151.468 54.0289 152.075 54.1889C152.682 54.3489 153.188 53.6423 153.255 53.5223L154.915 49.4626C154.955 49.3359 155.215 48.3027 154.415 47.8894C153.615 47.4761 152.861 48.4227 152.828 48.4693C152.773 48.5436 152.691 48.593 152.6 48.6068C152.509 48.6205 152.416 48.5975 152.342 48.5427C152.267 48.4878 152.218 48.4058 152.204 48.3145C152.19 48.2233 152.213 48.1303 152.268 48.056C152.642 47.5361 153.641 46.7228 154.735 47.2694C155.135 47.5095 155.439 47.8822 155.594 48.323C155.749 48.7638 155.744 49.2448 155.581 49.6826L153.908 53.7823V53.8222C153.75 54.1222 153.521 54.3788 153.241 54.5695C152.961 54.7601 152.638 54.879 152.302 54.9155Z" fill="black"/>
<path d="M150.655 65.4413H150.588C150.498 65.4236 150.419 65.3708 150.368 65.2946C150.316 65.2183 150.297 65.1249 150.315 65.0347C150.748 62.8282 151.262 61.215 153.135 57.4686C155.575 52.6023 154.695 50.3025 154.688 50.2758C154.671 50.2321 154.663 50.1854 154.664 50.1384C154.665 50.0914 154.675 50.0451 154.694 50.0021C154.713 49.9591 154.74 49.9202 154.774 49.8877C154.808 49.8551 154.848 49.8296 154.891 49.8125C154.935 49.7955 154.982 49.7872 155.029 49.7882C155.076 49.7891 155.122 49.7994 155.165 49.8182C155.208 49.8371 155.247 49.8643 155.28 49.8982C155.312 49.9321 155.338 49.9721 155.355 50.0159C155.395 50.1225 156.361 52.6357 153.781 57.7819C151.942 61.455 151.442 63.0282 151.015 65.168C150.999 65.2498 150.953 65.3228 150.887 65.3732C150.821 65.4235 150.738 65.4478 150.655 65.4413Z" fill="black"/>
<path d="M160.877 21.1571C160.889 21.1445 160.901 21.1323 160.913 21.1196C160.901 21.1323 160.889 21.1445 160.877 21.1571Z" fill="black"/>
<path d="M160.913 34.6097C160.901 34.5976 160.889 34.5849 160.877 34.5723C160.889 34.5845 160.901 34.5971 160.913 34.6097Z" fill="black"/>
<path d="M134.524 35.2828C134.518 35.2732 134.51 35.264 134.505 35.2535C134.505 35.2514 134.513 35.2448 134.517 35.24C134.521 35.2492 134.525 35.2579 134.528 35.2675C134.529 35.2719 134.526 35.2776 134.524 35.2828Z" fill="black"/>
<path d="M134.488 36.5627C134.5 36.5511 134.512 36.5394 134.524 36.5273C134.512 36.539 134.5 36.5506 134.488 36.5627Z" fill="black"/>
<path d="M161.002 36.5627C161.018 36.5509 161.035 36.539 161.052 36.5276C161.035 36.5395 161.018 36.5509 161.002 36.5627Z" fill="black"/>
<g clip-path="url(#clip0_1408_2774)">
<path d="M14.78 76.17H0.93C0.41 76.17 0 75.76 0 75.24V73.17C0 72.65 0.41 72.24 0.93 72.24H13.79C14.01 72.24 14.19 72.42 14.19 72.64C14.19 72.86 14.01 73.04 13.79 73.04H0.93C0.86 73.04 0.8 73.09 0.8 73.16V75.23C0.8 75.3 0.85 75.35 0.93 75.35H14.79C15.01 75.35 15.19 75.53 15.19 75.75C15.19 75.97 15.01 76.15 14.79 76.15L14.78 76.17Z" fill="black"/>
<path d="M2.42002 72.89C2.20002 72.89 2.02002 72.71 2.02002 72.49V70.19C2.02002 69.67 2.44002 69.24 2.97002 69.24H12.8C13.02 69.24 13.2 69.42 13.2 69.64C13.2 69.86 13.02 70.04 12.8 70.04H2.97002C2.89002 70.04 2.82002 70.1 2.82002 70.19V72.49C2.82002 72.71 2.64002 72.89 2.42002 72.89Z" fill="black"/>
<path d="M4.65999 38.95H3.85999V69.5H4.65999V38.95Z" fill="black"/>
<path d="M38.08 63.4799C37.86 63.4799 37.68 63.2999 37.68 63.0799V39.0799C37.68 38.8599 37.86 38.6799 38.08 38.6799C38.3 38.6799 38.48 38.8599 38.48 39.0799V63.0799C38.48 63.2999 38.3 63.4799 38.08 63.4799Z" fill="black"/>
<path d="M50.56 69.8801C50.34 69.8801 50.16 69.7 50.16 69.48V38.9501C50.16 38.7301 50.34 38.55 50.56 38.55C50.78 38.55 50.96 38.7301 50.96 38.9501V69.48C50.96 69.7 50.78 69.8801 50.56 69.8801Z" fill="black"/>
<path d="M17.08 53.4799C16.86 53.4799 16.68 53.2999 16.68 53.0799V39.0799C16.68 38.8599 16.86 38.6799 17.08 38.6799C17.3 38.6799 17.48 38.8599 17.48 39.0799V53.0799C17.48 53.2999 17.3 53.4799 17.08 53.4799Z" fill="black"/>
<path d="M52.23 39.2299H2.79001L2.76001 39.1999C2.33001 39.1099 2.01001 38.7299 2.01001 38.2799V35.7599C2.01001 35.4299 2.18001 35.1299 2.46001 34.9699L27.11 19.1599C27.44 18.9499 27.86 18.9499 28.19 19.1599L52.73 34.9299C52.99 35.0999 53.16 35.3999 53.16 35.7099V38.3099C53.16 38.8299 52.75 39.2399 52.23 39.2399V39.2299ZM3.13001 38.4299H52.23C52.3 38.4299 52.35 38.3799 52.35 38.2999V35.6999C52.35 35.6999 52.33 35.6199 52.29 35.5899L27.76 19.8299C27.69 19.7899 27.61 19.7899 27.54 19.8299L2.88001 35.6399C2.88001 35.6399 2.81001 35.7099 2.81001 35.7599V38.2799C2.81001 38.3499 2.87001 38.4199 2.95001 38.4199H3.13001V38.4299Z" fill="black"/>
<path d="M52.76 35.8601H2.42002C2.20002 35.8601 2.02002 35.6801 2.02002 35.4601C2.02002 35.2401 2.20002 35.0601 2.42002 35.0601H52.76C52.98 35.0601 53.16 35.2401 53.16 35.4601C53.16 35.6801 52.98 35.8601 52.76 35.8601Z" fill="black"/>
<path d="M54.24 76.17H40.38C40.16 76.17 39.98 75.99 39.98 75.77C39.98 75.55 40.16 75.37 40.38 75.37H54.24C54.31 75.37 54.36 75.32 54.36 75.25V73.18C54.36 73.11 54.31 73.06 54.24 73.06H41.38C41.16 73.06 40.98 72.88 40.98 72.66C40.98 72.44 41.16 72.26 41.38 72.26H54.24C54.76 72.26 55.17 72.67 55.17 73.19V75.26C55.17 75.78 54.76 76.19 54.24 76.19V76.17Z" fill="black"/>
<path d="M52.76 72.91C52.54 72.91 52.36 72.73 52.36 72.51V70.18C52.36 70.1 52.3 70.03 52.21 70.03H42.38C42.16 70.03 41.98 69.85 41.98 69.63C41.98 69.41 42.16 69.23 42.38 69.23H52.21C52.73 69.23 53.16 69.65 53.16 70.18V72.51C53.16 72.73 52.98 72.91 52.76 72.91Z" fill="black"/>
</g>
<defs>
<clipPath id="clip0_1408_2774">
<rect width="55.17" height="57.17" fill="white" transform="translate(0 19)"/>
</clipPath>
</defs>
</svg>
